<?xml version="1.0" encoding="utf-8"?>
<!-- Generator: Adobe Illustrator 25.2.0, SVG Export Plug-In . SVG Version: 6.00 Build 0)  -->
<svg version="1.1" id="Capa_1" xmlns="http://www.w3.org/2000/svg" xmlns:xlink="http://www.w3.org/1999/xlink" x="0px" y="0px"
	 viewBox="0 0 1764 1351" style="enable-background:new 0 0 1764 1351;" xml:space="preserve">
<style type="text/css">
	.st0{fill-rule:evenodd;clip-rule:evenodd;fill:#D15D64;}
	.st1{fill-rule:evenodd;clip-rule:evenodd;fill:#FCD05C;}
	.st2{fill:none;stroke:#7B63AB;stroke-width:1.097;stroke-linecap:round;stroke-linejoin:round;}
	.st3{fill-rule:evenodd;clip-rule:evenodd;fill:#E98333;}
	.st4{fill:none;stroke:#E98333;stroke-width:1.097;stroke-linecap:round;stroke-linejoin:round;}
	.st5{fill-rule:evenodd;clip-rule:evenodd;fill:#00A959;}
	.st6{fill-rule:evenodd;clip-rule:evenodd;fill:#7B63AB;}
	.st7{fill:none;stroke:#00A959;stroke-width:1.097;stroke-linecap:round;stroke-linejoin:round;}
	.st8{opacity:0.5;}
	.st9{fill-rule:evenodd;clip-rule:evenodd;fill:#4D595D;}
	.st10{fill:none;stroke:#DBE7F0;stroke-width:1.097;stroke-linecap:round;stroke-linejoin:round;}
	.st11{fill-rule:evenodd;clip-rule:evenodd;fill:#27363A;}
	.st12{opacity:0.39;}
	.st13{fill:#FFFFFF;}
	.st14{opacity:0.35;}
	.st15{fill:#371A45;}
	.st16{fill:#464049;}
	.st17{fill:#22A7F0;}
	.st18{opacity:0.7;}
	.st19{fill:#27363A;}
</style>
<g>
	<path class="st0" d="M774.8,788.1l2.8,1.5c0.2,0.1,0.3,0.3,0.2,0.5c0,0.1-0.1,0.1-0.2,0.2l-2.8,1.5c-0.1,0-0.1,0.1-0.2,0.2
		l-1.5,2.8c-0.1,0.2-0.3,0.3-0.5,0.2c-0.1,0-0.1-0.1-0.2-0.2l-1.5-2.8c0-0.1-0.1-0.1-0.2-0.2l-2.8-1.5c-0.2-0.1-0.3-0.3-0.2-0.5
		c0-0.1,0.1-0.1,0.2-0.2l2.8-1.5c0.1,0,0.1-0.1,0.2-0.2l1.5-2.8c0.1-0.2,0.3-0.3,0.5-0.2c0.1,0,0.1,0.1,0.2,0.2l1.5,2.8
		C774.7,788.1,774.7,788.1,774.8,788.1"/>
	<path class="st1" d="M239.1,166.7l1.4,0.7c0.2,0.1,0.3,0.3,0.2,0.5c0,0.1-0.1,0.1-0.2,0.2l-1.4,0.7c-0.1,0-0.1,0.1-0.2,0.2
		l-0.7,1.4c-0.1,0.2-0.3,0.3-0.5,0.2c-0.1,0-0.1-0.1-0.2-0.2l-0.7-1.4c0-0.1-0.1-0.1-0.2-0.2l-1.4-0.7c-0.2-0.1-0.3-0.3-0.2-0.5
		c0-0.1,0.1-0.1,0.2-0.2l1.4-0.7c0.1,0,0.1-0.1,0.2-0.2l0.7-1.4c0.1-0.2,0.3-0.3,0.5-0.2c0.1,0,0.1,0.1,0.2,0.2l0.7,1.4
		C238.9,166.6,239,166.7,239.1,166.7"/>
	<path class="st2" d="M409.5,108l-1.5,1.5 M413.5,104l-1.5,1.5 M409.5,108.2c0.7,0.7,1.9,0.7,2.6,0s0.7-1.9,0-2.6s-1.9-0.7-2.6,0
		C408.8,106.3,408.8,107.4,409.5,108.2L409.5,108.2z"/>
	<path class="st0" d="M962,138.1l2.8,1.5c0.2,0.1,0.3,0.3,0.2,0.5c0,0.1-0.1,0.1-0.2,0.2l-2.8,1.5c-0.1,0-0.1,0.1-0.2,0.2l-1.5,2.8
		c-0.1,0.2-0.3,0.3-0.5,0.2c-0.1,0-0.1-0.1-0.2-0.2l-1.5-2.8c0-0.1-0.1-0.1-0.2-0.2l-2.8-1.5c-0.2-0.1-0.3-0.3-0.2-0.5
		c0-0.1,0.1-0.1,0.2-0.2l2.8-1.5c0.1,0,0.1-0.1,0.2-0.2l1.5-2.8c0.1-0.2,0.3-0.3,0.5-0.2c0.1,0,0.1,0.1,0.2,0.2l1.5,2.8
		C961.9,138,961.9,138.1,962,138.1"/>
	<path class="st3" d="M1145,177.1l2.8,1.5c0.2,0.1,0.3,0.3,0.2,0.5c0,0.1-0.1,0.1-0.2,0.2l-2.8,1.5c-0.1,0-0.1,0.1-0.2,0.2l-1.5,2.8
		c-0.1,0.2-0.3,0.3-0.5,0.2c-0.1,0-0.1-0.1-0.2-0.2l-1.5-2.8c0-0.1-0.1-0.1-0.2-0.2l-2.8-1.5c-0.2-0.1-0.3-0.3-0.2-0.5
		c0-0.1,0.1-0.1,0.2-0.2l2.8-1.5c0.1,0,0.1-0.1,0.2-0.2l1.5-2.8c0.1-0.2,0.3-0.3,0.5-0.2c0.1,0,0.1,0.1,0.2,0.2l1.5,2.8
		C1144.9,177,1144.9,177.1,1145,177.1"/>
	<path class="st1" d="M1083.1,100.7l1.4,0.7c0.2,0.1,0.3,0.3,0.2,0.5c0,0.1-0.1,0.1-0.2,0.2l-1.4,0.7c-0.1,0-0.1,0.1-0.2,0.2
		l-0.7,1.4c-0.1,0.2-0.3,0.3-0.5,0.2c-0.1,0-0.1-0.1-0.2-0.2l-0.7-1.4c0-0.1-0.1-0.1-0.2-0.2l-1.4-0.7c-0.2-0.1-0.3-0.3-0.2-0.5
		c0-0.1,0.1-0.1,0.2-0.2l1.4-0.7c0.1,0,0.1-0.1,0.2-0.2l0.7-1.4c0.1-0.2,0.3-0.3,0.5-0.2c0.1,0,0.1,0.1,0.2,0.2l0.7,1.4
		C1082.9,100.6,1083,100.7,1083.1,100.7"/>
	<path class="st0" d="M1206.8,253.9c0,1.6-1.3,2.9-2.9,2.9s-2.9-1.3-2.9-2.9s1.3-2.9,2.9-2.9S1206.8,252.3,1206.8,253.9 M115,319.1
		l2.8,1.5c0.2,0.1,0.3,0.3,0.2,0.5c0,0.1-0.1,0.1-0.2,0.2l-2.8,1.5c-0.1,0-0.1,0.1-0.2,0.2l-1.5,2.8c-0.1,0.2-0.3,0.3-0.5,0.2
		c-0.1,0-0.1-0.1-0.2-0.2l-1.5-2.8c0-0.1-0.1-0.1-0.2-0.2l-2.8-1.5c-0.2-0.1-0.3-0.3-0.2-0.5c0-0.1,0.1-0.1,0.2-0.2l2.8-1.5
		c0.1,0,0.1-0.1,0.2-0.2l1.5-2.8c0.1-0.2,0.3-0.3,0.5-0.2c0.1,0,0.1,0.1,0.2,0.2l1.5,2.8C114.9,319,114.9,319.1,115,319.1"/>
	<path class="st1" d="M206.1,452.7l1.4,0.7c0.2,0.1,0.3,0.3,0.2,0.5c0,0.1-0.1,0.1-0.2,0.2l-1.4,0.7c-0.1,0-0.1,0.1-0.2,0.2
		l-0.7,1.4c-0.1,0.2-0.3,0.3-0.5,0.2c-0.1,0-0.1-0.1-0.2-0.2l-0.7-1.4c0-0.1-0.1-0.1-0.2-0.2l-1.4-0.7c-0.2-0.1-0.3-0.3-0.2-0.5
		c0-0.1,0.1-0.1,0.2-0.2l1.4-0.7c0.1,0,0.1-0.1,0.2-0.2l0.7-1.4c0.1-0.2,0.3-0.3,0.5-0.2c0.1,0,0.1,0.1,0.2,0.2l0.7,1.4
		C205.9,452.6,206,452.7,206.1,452.7"/>
	<path class="st0" d="M1662,527.1l2.8,1.5c0.2,0.1,0.3,0.3,0.2,0.5c0,0.1-0.1,0.1-0.2,0.2l-2.8,1.5c-0.1,0-0.1,0.1-0.2,0.2l-1.5,2.8
		c-0.1,0.2-0.3,0.3-0.5,0.2c-0.1,0-0.1-0.1-0.2-0.2l-1.5-2.8c0-0.1-0.1-0.1-0.2-0.2l-2.8-1.5c-0.2-0.1-0.3-0.3-0.2-0.5
		c0-0.1,0.1-0.1,0.2-0.2l2.8-1.5c0.1,0,0.1-0.1,0.2-0.2l1.5-2.8c0.1-0.2,0.3-0.3,0.5-0.2c0.1,0,0.1,0.1,0.2,0.2l1.5,2.8
		C1661.9,527,1661.9,527.1,1662,527.1 M1376.9,100.6l1.3,0.7c0.3,0.1,0.3,0.5,0,0.7l-1.3,0.7c-0.1,0-0.1,0.1-0.2,0.1l-0.7,1.3
		c-0.1,0.2-0.3,0.2-0.5,0.1c-0.1,0-0.1-0.1-0.1-0.1l-0.7-1.3c0-0.1-0.1-0.1-0.2-0.1l-1.3-0.7c-0.2-0.1-0.2-0.3-0.1-0.5
		c0-0.1,0.1-0.1,0.1-0.1l1.3-0.7c0.1,0,0.1-0.1,0.2-0.2l0.7-1.3c0.1-0.2,0.3-0.3,0.5-0.2c0.1,0,0.1,0.1,0.2,0.2L1376.9,100.6
		C1376.8,100.6,1376.8,100.6,1376.9,100.6"/>
	<path class="st1" d="M1634.1,382.7l1.4,0.7c0.2,0.1,0.3,0.3,0.2,0.5c0,0.1-0.1,0.1-0.2,0.2l-1.4,0.7c-0.1,0-0.1,0.1-0.2,0.2
		l-0.7,1.4c-0.1,0.2-0.3,0.3-0.5,0.2c-0.1,0-0.1-0.1-0.2-0.2l-0.7-1.4c0-0.1-0.1-0.1-0.2-0.2l-1.4-0.7c-0.2-0.1-0.3-0.3-0.2-0.5
		c0-0.1,0.1-0.1,0.2-0.2l1.4-0.7c0.1,0,0.1-0.1,0.2-0.2l0.7-1.4c0.1-0.2,0.3-0.3,0.5-0.2c0.1,0,0.1,0.1,0.2,0.2l0.7,1.4
		C1633.9,382.6,1634,382.7,1634.1,382.7"/>
	<path class="st4" d="M411,385.9l3.6-0.9l-0.9,3.6L411,385.9z"/>
	<path class="st5" d="M522.2,503l2,1.1l-2,1.1l-1.1,2l-1.1-2l-2-1.1l2-1.1l1.1-2L522.2,503z"/>
	<path class="st3" d="M531,40.1l2.8,1.5c0.2,0.1,0.3,0.3,0.2,0.5c0,0.1-0.1,0.1-0.2,0.2l-2.8,1.5c-0.1,0-0.1,0.1-0.2,0.2l-1.5,2.8
		c-0.1,0.2-0.3,0.3-0.5,0.2c-0.1,0-0.1-0.1-0.2-0.2l-1.5-2.8c0-0.1-0.1-0.1-0.2-0.2l-2.8-1.5c-0.2-0.1-0.3-0.3-0.2-0.5
		c0-0.1,0.1-0.1,0.2-0.2l2.8-1.5c0.1,0,0.1-0.1,0.2-0.2l1.5-2.8c0.1-0.2,0.3-0.3,0.5-0.2c0.1,0,0.1,0.1,0.2,0.2l1.5,2.8
		C530.9,40,530.9,40.1,531,40.1"/>
	<path class="st2" d="M653.9,202.3l-0.8-1.6c0-0.1-0.1-0.1-0.2-0.2l-1.6-0.8c-0.2-0.1-0.3-0.4-0.2-0.6c0-0.1,0.1-0.1,0.2-0.2
		l1.6-0.8c0.1,0,0.1-0.1,0.2-0.2l0.8-1.6c0.1-0.2,0.4-0.3,0.6-0.2c0.1,0,0.1,0.1,0.2,0.2l0.8,1.6c0,0.1,0.1,0.1,0.2,0.2l1.6,0.8
		c0.3,0.2,0.3,0.6,0,0.8l-1.6,0.8c-0.1,0-0.1,0.1-0.2,0.2l-0.8,1.6c-0.1,0.2-0.4,0.3-0.6,0.2C654,202.4,653.9,202.3,653.9,202.3
		L653.9,202.3z"/>
	<path class="st0" d="M594,161.1l2.8,1.5c0.2,0.1,0.3,0.3,0.2,0.5c0,0.1-0.1,0.1-0.2,0.2l-2.8,1.5c-0.1,0-0.1,0.1-0.2,0.2l-1.5,2.8
		c-0.1,0.2-0.3,0.3-0.5,0.2c-0.1,0-0.1-0.1-0.2-0.2l-1.5-2.8c0-0.1-0.1-0.1-0.2-0.2l-2.8-1.5c-0.2-0.1-0.3-0.3-0.2-0.5
		c0-0.1,0.1-0.1,0.2-0.2l2.8-1.5c0.1,0,0.1-0.1,0.2-0.2l1.5-2.8c0.1-0.2,0.3-0.3,0.5-0.2c0.1,0,0.1,0.1,0.2,0.2l1.5,2.8
		C593.9,161,593.9,161.1,594,161.1"/>
	<path class="st3" d="M178,127.1l2.8,1.5c0.2,0.1,0.3,0.3,0.2,0.5c0,0.1-0.1,0.1-0.2,0.2l-2.8,1.5c-0.1,0-0.1,0.1-0.2,0.2l-1.5,2.8
		c-0.1,0.2-0.3,0.3-0.5,0.2c-0.1,0-0.1-0.1-0.2-0.2l-1.5-2.8c0-0.1-0.1-0.1-0.2-0.2l-2.8-1.5c-0.2-0.1-0.3-0.3-0.2-0.5
		c0-0.1,0.1-0.1,0.2-0.2l2.8-1.5c0.1,0,0.1-0.1,0.2-0.2l1.5-2.8c0.1-0.2,0.3-0.3,0.5-0.2c0.1,0,0.1,0.1,0.2,0.2l1.5,2.8
		C177.9,127,177.9,127.1,178,127.1"/>
	<path class="st0" d="M299.8,56.9c0,1.6-1.3,2.9-2.9,2.9s-2.9-1.3-2.9-2.9s1.3-2.9,2.9-2.9S299.8,55.3,299.8,56.9"/>
	<path class="st2" d="M50.9,205.3l-0.8-1.6c0-0.1-0.1-0.1-0.2-0.2l-1.6-0.8c-0.2-0.1-0.3-0.4-0.2-0.6c0-0.1,0.1-0.1,0.2-0.2l1.6-0.8
		c0.1,0,0.1-0.1,0.2-0.2l0.8-1.6c0.1-0.2,0.4-0.3,0.6-0.2c0.1,0,0.1,0.1,0.2,0.2l0.8,1.6c0,0.1,0.1,0.1,0.2,0.2l1.6,0.8
		c0.3,0.2,0.3,0.6,0,0.8l-1.6,0.8c-0.1,0-0.1,0.1-0.2,0.2l-0.8,1.6c-0.1,0.2-0.4,0.3-0.6,0.2C51,205.4,50.9,205.3,50.9,205.3
		L50.9,205.3z"/>
	<path class="st0" d="M1691,261.1l2.8,1.5c0.2,0.1,0.3,0.3,0.2,0.5c0,0.1-0.1,0.1-0.2,0.2l-2.8,1.5c-0.1,0-0.1,0.1-0.2,0.2l-1.5,2.8
		c-0.1,0.2-0.3,0.3-0.5,0.2c-0.1,0-0.1-0.1-0.2-0.2l-1.5-2.8c0-0.1-0.1-0.1-0.2-0.2l-2.8-1.5c-0.2-0.1-0.3-0.3-0.2-0.5
		c0-0.1,0.1-0.1,0.2-0.2l2.8-1.5c0.1,0,0.1-0.1,0.2-0.2l1.5-2.8c0.1-0.2,0.3-0.3,0.5-0.2c0.1,0,0.1,0.1,0.2,0.2l1.5,2.8
		C1690.9,261,1690.9,261.1,1691,261.1"/>
	<path class="st6" d="M1637.1,223.7l1.4,0.7c0.2,0.1,0.3,0.3,0.2,0.5c0,0.1-0.1,0.1-0.2,0.2l-1.4,0.7c-0.1,0-0.1,0.1-0.2,0.2
		l-0.7,1.4c-0.1,0.2-0.3,0.3-0.5,0.2c-0.1,0-0.1-0.1-0.2-0.2l-0.7-1.4c0-0.1-0.1-0.1-0.2-0.2l-1.4-0.7c-0.2-0.1-0.3-0.3-0.2-0.5
		c0-0.1,0.1-0.1,0.2-0.2l1.4-0.7c0.1,0,0.1-0.1,0.2-0.2l0.7-1.4c0.1-0.2,0.3-0.3,0.5-0.2c0.1,0,0.1,0.1,0.2,0.2l0.7,1.4
		C1636.9,223.6,1637,223.7,1637.1,223.7"/>
	<path class="st0" d="M1611.9,48.6l1.3,0.7c0.3,0.1,0.3,0.5,0,0.7l-1.3,0.7c-0.1,0-0.1,0.1-0.2,0.2l-0.7,1.3
		c-0.1,0.2-0.3,0.2-0.5,0.1c-0.1,0-0.1-0.1-0.1-0.1l-0.7-1.3c0-0.1-0.1-0.1-0.2-0.2l-1.3-0.7c-0.2-0.1-0.3-0.3-0.2-0.5
		c0-0.1,0.1-0.1,0.2-0.2l1.3-0.7c0.1,0,0.1-0.1,0.2-0.2l0.7-1.3c0.1-0.2,0.3-0.3,0.5-0.2c0.1,0,0.1,0.1,0.2,0.2l0.7,1.3
		C1611.8,48.6,1611.8,48.6,1611.9,48.6"/>
	<path class="st1" d="M1663.1,116.7l1.4,0.7c0.2,0.1,0.3,0.3,0.2,0.5c0,0.1-0.1,0.1-0.2,0.2l-1.4,0.7c-0.1,0-0.1,0.1-0.2,0.2
		l-0.7,1.4c-0.1,0.2-0.3,0.3-0.5,0.2c-0.1,0-0.1-0.1-0.2-0.2l-0.7-1.4c0-0.1-0.1-0.1-0.2-0.2l-1.4-0.7c-0.2-0.1-0.3-0.3-0.2-0.5
		c0-0.1,0.1-0.1,0.2-0.2l1.4-0.7c0.1,0,0.1-0.1,0.2-0.2l0.7-1.4c0.1-0.2,0.3-0.3,0.5-0.2c0.1,0,0.1,0.1,0.2,0.2l0.7,1.4
		C1662.9,116.6,1663,116.7,1663.1,116.7"/>
	<g transform="translate(1580 434)">
		<path class="st6" d="M4.7,1.8L6,2.5C6.2,2.6,6.3,2.8,6.2,3c0,0.1-0.1,0.1-0.2,0.2L4.7,4C4.6,4,4.5,4.1,4.5,4.1L3.8,5.5
			C3.7,5.7,3.4,5.7,3.2,5.6C3.1,5.6,3.1,5.5,3,5.4L2.3,4.1L2.2,4L0.8,3.2C0.6,3.1,0.6,2.9,0.7,2.7c0-0.1,0.1-0.1,0.2-0.2l1.4-0.7
			c0.1,0,0.1-0.1,0.2-0.2l0.7-1.4c0-0.1,0.2-0.2,0.4-0.1c0.1,0,0.1,0.1,0.2,0.2l0.7,1.4C4.5,1.7,4.6,1.8,4.7,1.8"/>
	</g>
	<path class="st1" d="M1385,483.1l2.8,1.5c0.2,0.1,0.3,0.3,0.2,0.5c0,0.1-0.1,0.1-0.2,0.2l-2.8,1.5c-0.1,0-0.1,0.1-0.2,0.2l-1.5,2.8
		c-0.1,0.2-0.3,0.3-0.5,0.2c-0.1,0-0.1-0.1-0.2-0.2l-1.5-2.8c0-0.1-0.1-0.1-0.2-0.2l-2.8-1.5c-0.2-0.1-0.3-0.3-0.2-0.5
		c0-0.1,0.1-0.1,0.2-0.2l2.8-1.5c0.1,0,0.1-0.1,0.2-0.2l1.5-2.8c0.1-0.2,0.3-0.3,0.5-0.2c0.1,0,0.1,0.1,0.2,0.2l1.5,2.8
		C1384.9,483,1384.9,483.1,1385,483.1"/>
	<path class="st0" d="M1273.9,338.6l1.3,0.7c0.3,0.1,0.3,0.5,0,0.7l-1.3,0.7c-0.1,0-0.1,0.1-0.2,0.1l-0.7,1.3
		c-0.1,0.2-0.3,0.2-0.5,0.1c-0.1,0-0.1-0.1-0.1-0.1l-0.7-1.3c0-0.1-0.1-0.1-0.2-0.1l-1.3-0.7c-0.2-0.1-0.2-0.3-0.1-0.5
		c0-0.1,0.1-0.1,0.1-0.1l1.3-0.7c0.1,0,0.1-0.1,0.2-0.1l0.7-1.3c0.1-0.2,0.3-0.3,0.5-0.2c0.1,0,0.1,0.1,0.2,0.2L1273.9,338.6
		C1273.8,338.6,1273.8,338.6,1273.9,338.6"/>
	<path class="st1" d="M1494.1,406.7l1.4,0.7c0.2,0.1,0.3,0.3,0.2,0.5c0,0.1-0.1,0.1-0.2,0.2l-1.4,0.7c-0.1,0-0.1,0.1-0.2,0.2
		l-0.7,1.4c-0.1,0.2-0.3,0.3-0.5,0.2c-0.1,0-0.1-0.1-0.2-0.2l-0.7-1.4c0-0.1-0.1-0.1-0.2-0.2l-1.4-0.7c-0.2-0.1-0.3-0.3-0.2-0.5
		c0-0.1,0.1-0.1,0.2-0.2l1.4-0.7c0.1,0,0.1-0.1,0.2-0.2l0.7-1.4c0.1-0.2,0.3-0.3,0.5-0.2c0.1,0,0.1,0.1,0.2,0.2l0.7,1.4
		C1493.9,406.6,1494,406.7,1494.1,406.7"/>
	<path class="st7" d="M1712,450.5l1.8-0.5l1.8,0.5l-0.5-1.8l0.5-1.8l-1.8,0.5l-1.8-0.5l0.5,1.8L1712,450.5z"/>
	<g transform="translate(1598 622)">
		<path class="st0" d="M7.6,3.8l2.8,1.5c0.2,0.1,0.3,0.3,0.2,0.5c0,0.1-0.1,0.1-0.2,0.2L7.6,7.5c-0.1,0-0.1,0.1-0.2,0.2L6,10.4
			c-0.1,0.2-0.3,0.3-0.5,0.2c-0.1,0-0.1-0.1-0.2-0.2L3.8,7.7c0-0.1-0.1-0.1-0.2-0.2L0.9,6C0.7,5.9,0.6,5.7,0.7,5.5
			c0-0.1,0.1-0.1,0.2-0.2l2.8-1.5c0.1,0,0.1-0.1,0.2-0.2l1.5-2.8c0.1-0.2,0.3-0.3,0.5-0.2C6,0.6,6,0.7,6.1,0.8l1.5,2.8
			C7.5,3.7,7.6,3.8,7.6,3.8"/>
	</g>
	<g>
		<path class="st4" d="M70.5,513l-1.5,1.5 M74.5,509l-1.5,1.5 M70.5,513.2c0.7,0.7,1.9,0.7,2.6,0s0.7-1.9,0-2.6s-1.9-0.7-2.6,0
			C69.8,511.3,69.8,512.4,70.5,513.2z"/>
	</g>
	<path class="st1" d="M239.1,1200.9l1.4-0.7c0.2-0.1,0.3-0.3,0.2-0.5c0-0.1-0.1-0.1-0.2-0.2l-1.4-0.7c-0.1,0-0.1-0.1-0.2-0.2
		l-0.7-1.4c-0.1-0.2-0.3-0.3-0.5-0.2c-0.1,0-0.1,0.1-0.2,0.2l-0.7,1.4c0,0.1-0.1,0.1-0.2,0.2l-1.4,0.7c-0.2,0.1-0.3,0.3-0.2,0.5
		c0,0.1,0.1,0.1,0.2,0.2l1.4,0.7c0.1,0,0.1,0.1,0.2,0.2l0.7,1.4c0.1,0.3,0.5,0.3,0.7,0l0.7-1.4C238.9,1201,239,1200.9,239.1,1200.9"
		/>
	<path class="st0" d="M1206.8,1132.9c0-1.6-1.3-2.9-2.9-2.9s-2.9,1.3-2.9,2.9l0,0c0,1.6,1.3,2.9,2.9,2.9
		S1206.8,1134.5,1206.8,1132.9 M115,1035.8l2.8-1.5c0.2-0.1,0.3-0.3,0.2-0.5c0-0.1-0.1-0.1-0.2-0.2l-2.8-1.5c-0.1,0-0.1-0.1-0.2-0.2
		l-1.5-2.8c-0.1-0.2-0.3-0.3-0.5-0.2c-0.1,0-0.1,0.1-0.2,0.2l-1.5,2.8c0,0.1-0.1,0.1-0.2,0.2l-2.8,1.5c-0.2,0.1-0.3,0.3-0.2,0.5
		c0,0.1,0.1,0.1,0.2,0.2l2.8,1.5c0.1,0,0.1,0.1,0.2,0.2l1.5,2.8c0.2,0.3,0.5,0.3,0.7,0l1.5-2.8
		C114.9,1035.9,114.9,1035.9,115,1035.8"/>
	<path class="st1" d="M206.1,793.9l1.4-0.7c0.2-0.1,0.3-0.3,0.2-0.5c0-0.1-0.1-0.1-0.2-0.2l-1.4-0.7c-0.1,0-0.1-0.1-0.2-0.2
		l-0.7-1.4c-0.1-0.2-0.3-0.3-0.5-0.2c-0.1,0-0.1,0.1-0.2,0.2l-0.7,1.4c0,0.1-0.1,0.1-0.2,0.2l-1.4,0.7c-0.2,0.1-0.3,0.3-0.2,0.5
		c0,0.1,0.1,0.1,0.2,0.2l1.4,0.7c0.1,0,0.1,0.1,0.2,0.2l0.7,1.4c0.1,0.3,0.5,0.3,0.7,0l0.7-1.4C205.9,794,206,793.9,206.1,793.9"/>
	<path class="st0" d="M1456,1061.8l2.8-1.5c0.2-0.1,0.3-0.3,0.2-0.5c0-0.1-0.1-0.1-0.2-0.2l-2.6-1.4c-0.2-0.2-0.3-0.3-0.4-0.4
		l-1.4-2.6c-0.1-0.2-0.3-0.3-0.5-0.2c-0.1,0-0.1,0.1-0.2,0.2l-1.4,2.6c-0.2,0.2-0.3,0.3-0.5,0.5l-2.6,1.4c-0.2,0.1-0.3,0.3-0.2,0.5
		c0,0.1,0.1,0.1,0.2,0.2l2.6,1.4c0.2,0.2,0.3,0.3,0.4,0.4l0.8,1.4c0.4,0.8,1.5,0.8,2,0l0.9-1.6
		C1455.9,1061.9,1455.9,1061.9,1456,1061.8"/>
	<path class="st6" d="M1402.1,1085.9l1.4-0.7c0.2-0.1,0.3-0.3,0.2-0.5c0-0.1-0.1-0.1-0.2-0.2l-1.2-0.6c-0.2-0.2-0.3-0.3-0.4-0.4
		l-0.6-1.2c-0.1-0.2-0.3-0.3-0.5-0.2c-0.1,0-0.1,0.1-0.2,0.2l-0.6,1.2c-0.2,0.2-0.3,0.3-0.4,0.4l-1.2,0.6c-0.2,0.1-0.3,0.3-0.2,0.5
		c0,0.1,0.1,0.1,0.2,0.2l1.2,0.6c0.2,0.2,0.3,0.3,0.4,0.4l0,0c0.4,0.8,1.5,0.8,2,0l0.1-0.2C1401.9,1086,1402,1085.9,1402.1,1085.9"
		/>
	<path class="st4" d="M411,894.7l3.6,0.9l-0.9-3.6L411,894.7z"/>
	<path class="st5" d="M522.2,745.2l2-1.1l-2-1.1l-1.1-2l-1.1,2l-2,1.1l2,1.1l1.1,2L522.2,745.2z"/>
	<path class="st3" d="M178,1225.8l2.8-1.5c0.2-0.1,0.3-0.3,0.2-0.5c0-0.1-0.1-0.1-0.2-0.2l-2.8-1.5c-0.1,0-0.1-0.1-0.2-0.2l-1.5-2.8
		c-0.1-0.2-0.3-0.3-0.5-0.2c-0.1,0-0.1,0.1-0.2,0.2l-1.5,2.8c0,0.1-0.1,0.1-0.2,0.2l-2.8,1.5c-0.2,0.1-0.3,0.3-0.2,0.5
		c0,0.1,0.1,0.1,0.2,0.2l2.8,1.5c0.1,0,0.1,0.1,0.2,0.2l1.5,2.8c0.1,0.3,0.5,0.3,0.7,0l1.5-2.8
		C177.9,1225.9,177.9,1225.9,178,1225.8"/>
	<path class="st0" d="M299.8,1325.9c0-1.6-1.3-2.9-2.9-2.9s-2.9,1.3-2.9,2.9s1.3,2.9,2.9,2.9S299.8,1327.5,299.8,1325.9"/>
	<path class="st2" d="M50.9,1174.2l-0.8,1.6c0,0.1-0.1,0.1-0.2,0.2l-1.6,0.8c-0.2,0.1-0.3,0.4-0.2,0.6c0,0.1,0.1,0.1,0.2,0.2
		l1.6,0.8c0.1,0,0.1,0.1,0.2,0.2l0.8,1.6c0.2,0.3,0.6,0.3,0.8,0l0.8-1.6c0-0.1,0.1-0.1,0.2-0.2l1.6-0.8c0.2-0.1,0.3-0.4,0.2-0.6
		c0-0.1-0.1-0.1-0.2-0.2l-1.6-0.8c-0.1,0-0.1-0.1-0.2-0.2l-0.8-1.6c-0.1-0.2-0.4-0.3-0.6-0.2C51,1174.1,50.9,1174.2,50.9,1174.2
		L50.9,1174.2z"/>
	<path class="st0" d="M1691,1110.8l2.8-1.5c0.2-0.1,0.3-0.3,0.2-0.5c0-0.1-0.1-0.1-0.2-0.2l-2.8-1.5c-0.1,0-0.1-0.1-0.2-0.2
		l-1.5-2.8c-0.1-0.2-0.3-0.3-0.5-0.2c-0.1,0-0.1,0.1-0.2,0.2l-1.5,2.8c0,0.1-0.1,0.1-0.2,0.2l-2.8,1.5c-0.2,0.1-0.3,0.3-0.2,0.5
		c0,0.1,0.1,0.1,0.2,0.2l2.8,1.5c0.1,0,0.1,0.1,0.2,0.2l1.5,2.8c0.2,0.3,0.5,0.3,0.7,0l1.5-2.8
		C1690.9,1110.9,1690.9,1110.9,1691,1110.8"/>
	<path class="st6" d="M1637.1,1155.9l1.4-0.7c0.2-0.1,0.3-0.3,0.2-0.5c0-0.1-0.1-0.1-0.2-0.2l-1.4-0.7c-0.1,0-0.1-0.1-0.2-0.2
		l-0.7-1.4c-0.1-0.2-0.3-0.3-0.5-0.2c-0.1,0-0.1,0.1-0.2,0.2l-0.7,1.4c0,0.1-0.1,0.1-0.2,0.2l-1.4,0.7c-0.2,0.1-0.3,0.3-0.2,0.5
		c0,0.1,0.1,0.1,0.2,0.2l1.4,0.7c0.1,0,0.1,0.1,0.2,0.2l0.7,1.4c0.2,0.3,0.5,0.3,0.7,0l0.7-1.4
		C1636.9,1156,1637,1155.9,1637.1,1155.9"/>
	<path class="st0" d="M1611.9,1349.7l1.3-0.7c0.2-0.1,0.2-0.3,0.1-0.5c0-0.1-0.1-0.1-0.1-0.1l-1.3-0.7c-0.1,0-0.1-0.1-0.2-0.2
		l-0.7-1.3c-0.1-0.2-0.3-0.2-0.5-0.1c-0.1,0-0.1,0.1-0.1,0.1l-0.7,1.3c0,0.1-0.1,0.1-0.2,0.2l-1.3,0.7c-0.2,0.1-0.3,0.3-0.2,0.5
		c0,0.1,0.1,0.1,0.2,0.2l1.3,0.7c0.1,0,0.1,0.1,0.2,0.2l0.7,1.3c0.1,0.2,0.3,0.3,0.5,0.2c0.1,0,0.1-0.1,0.2-0.2l0.7-1.3
		C1611.8,1349.8,1611.8,1349.8,1611.9,1349.7"/>
	<path class="st1" d="M1663.1,1249.9l1.4-0.7c0.2-0.1,0.3-0.3,0.2-0.5c0-0.1-0.1-0.1-0.2-0.2l-1.4-0.7c-0.1,0-0.1-0.1-0.2-0.2
		l-0.7-1.4c-0.1-0.2-0.3-0.3-0.5-0.2c-0.1,0-0.1,0.1-0.2,0.2l-0.7,1.4c0,0.1-0.1,0.1-0.2,0.2l-1.4,0.7c-0.2,0.1-0.3,0.3-0.2,0.5
		c0,0.1,0.1,0.1,0.2,0.2l1.4,0.7c0.1,0,0.1,0.1,0.2,0.2l0.7,1.4c0.2,0.3,0.5,0.3,0.7,0l0.7-1.4
		C1662.9,1250,1663,1249.9,1663.1,1249.9"/>
	<g transform="matrix(1 0 0 -1 1587 986)">
		<path class="st6" d="M4.7,1.8L6,2.5C6.2,2.6,6.3,2.8,6.2,3c0,0.1-0.1,0.1-0.2,0.2L4.7,4C4.6,4,4.5,4.1,4.5,4.1L3.8,5.5
			C3.7,5.7,3.4,5.7,3.2,5.6C3.1,5.6,3.1,5.5,3,5.4L2.3,4.1L2.2,4L0.8,3.2C0.6,3.1,0.6,2.9,0.7,2.7c0-0.1,0.1-0.1,0.2-0.2l1.4-0.7
			c0.1,0,0.1-0.1,0.2-0.2l0.7-1.4c0-0.1,0.2-0.2,0.4-0.1c0.1,0,0.1,0.1,0.2,0.2l0.7,1.4C4.5,1.7,4.6,1.8,4.7,1.8"/>
	</g>
	<g>
		<path class="st2" d="M1164,915l2.8-2.8 M1156,923l2.8-2.8 M1161.6,912.9c0-1-5.2,4.2-4.5,4.5c2.2,0.8,3.8,2.4,4.6,4.6
			c0.2,0.7,5.5-4.5,4.5-4.5C1167.1,917.4,1161.6,911.9,1161.6,912.9L1161.6,912.9z"/>
	</g>
	<path class="st1" d="M1385,770.8l2.8-1.5c0.2-0.1,0.3-0.3,0.2-0.5c0-0.1-0.1-0.1-0.2-0.2l-2.8-1.5c-0.1,0-0.1-0.1-0.2-0.2l-1.5-2.8
		c-0.1-0.2-0.3-0.3-0.5-0.2c-0.1,0-0.1,0.1-0.2,0.2l-1.5,2.8c0,0.1-0.1,0.1-0.2,0.2l-2.8,1.5c-0.2,0.1-0.3,0.3-0.2,0.5
		c0,0.1,0.1,0.1,0.2,0.2l2.8,1.5c0.1,0,0.1,0.1,0.2,0.2l1.5,2.8c0.2,0.3,0.5,0.3,0.7,0l1.5-2.8
		C1384.9,770.9,1384.9,770.9,1385,770.8"/>
	<path class="st0" d="M1273.9,962.7l1.3-0.7c0.2-0.1,0.2-0.3,0.1-0.5c0-0.1-0.1-0.1-0.1-0.1l-1.1-0.6c-0.1-0.1-0.3-0.3-0.4-0.4
		l-0.6-1.1c-0.1-0.2-0.3-0.2-0.5-0.1c-0.1,0-0.1,0.1-0.1,0.1l-0.6,1.1c-0.2,0.2-0.3,0.3-0.4,0.4l-1.1,0.6c-0.2,0.1-0.3,0.3-0.2,0.5
		c0,0.1,0.1,0.1,0.2,0.2l1.1,0.6c0.1,0.1,0.3,0.3,0.4,0.4l0.6,1.1c0.1,0.2,0.3,0.3,0.5,0.2c0.1,0,0.1-0.1,0.2-0.2l0.7-1.3
		C1273.8,962.8,1273.8,962.8,1273.9,962.7"/>
	<path class="st0" d="M558,1244.7c0-1.6-1.3-2.9-2.9-2.9c-1.6,0-2.9,1.3-2.9,2.9l0,0c0,1.6,1.3,2.9,2.9,2.9S558,1246.3,558,1244.7"
		/>
	<path class="st6" d="M753.3,1197.7l1.4-0.7c0.2-0.1,0.3-0.3,0.2-0.5c0-0.1-0.1-0.1-0.2-0.2l-1.2-0.6c-0.2-0.2-0.3-0.3-0.4-0.4
		l-0.6-1.2c-0.1-0.2-0.3-0.3-0.5-0.2c-0.1,0-0.1,0.1-0.2,0.2l-0.6,1.2c-0.2,0.2-0.3,0.3-0.4,0.4l-1.2,0.6c-0.2,0.1-0.3,0.3-0.2,0.5
		c0,0.1,0.1,0.1,0.2,0.2l1.2,0.6c0.2,0.2,0.3,0.3,0.4,0.4l0,0c0.4,0.8,1.5,0.8,2,0l0.1-0.2C753.1,1197.8,753.2,1197.7,753.3,1197.7"
		/>
	<g>
		<path class="st2" d="M515.2,1026.8l2.8-2.8 M507.2,1034.8l2.8-2.8 M512.8,1024.7c0-1-5.2,4.2-4.5,4.5c2.2,0.8,3.8,2.4,4.6,4.6
			c0.2,0.7,5.5-4.5,4.5-4.5C518.3,1029.2,512.8,1023.7,512.8,1024.7L512.8,1024.7z"/>
	</g>
	<path class="st0" d="M625.1,1074.5l1.3-0.7c0.2-0.1,0.2-0.3,0.1-0.5c0-0.1-0.1-0.1-0.1-0.1l-1.1-0.6c-0.1-0.1-0.3-0.3-0.4-0.4
		l-0.6-1.1c-0.1-0.2-0.3-0.2-0.5-0.1c-0.1,0-0.1,0.1-0.1,0.1l-0.6,1.1c-0.2,0.2-0.3,0.3-0.4,0.4l-1.1,0.6c-0.2,0.1-0.3,0.3-0.2,0.5
		c0,0.1,0.1,0.1,0.2,0.2l1.1,0.6c0.1,0.1,0.3,0.3,0.4,0.4l0.6,1.1c0.1,0.2,0.3,0.3,0.5,0.2c0.1,0,0.1-0.1,0.2-0.2l0.7-1.3
		C625,1074.6,625,1074.6,625.1,1074.5"/>
	<path class="st1" d="M1494.1,873.9l1.4-0.7c0.2-0.1,0.3-0.3,0.2-0.5c0-0.1-0.1-0.1-0.2-0.2l-1.4-0.7c-0.1-0.1-0.1-0.1-0.2-0.2
		l-0.7-1.4c-0.1-0.2-0.3-0.3-0.5-0.2c-0.1,0-0.1,0.1-0.2,0.2l-0.6,1.2c-0.2,0.2-0.3,0.3-0.5,0.4l-1.2,0.6c-0.2,0.1-0.3,0.3-0.2,0.5
		c0,0.1,0.1,0.1,0.2,0.2l1.2,0.6c0.2,0.2,0.3,0.3,0.4,0.4l0,0c0.4,0.8,1.5,0.8,2,0l0.1-0.2C1493.9,874,1494,873.9,1494.1,873.9"/>
	<path class="st0" d="M797.6,663.2c0-1.6-1.3-2.9-2.9-2.9c-1.6,0-2.9,1.3-2.9,2.9l0,0c0,1.6,1.3,2.9,2.9,2.9
		C796.3,666.2,797.6,664.9,797.6,663.2"/>
	<path class="st0" d="M1046.8,592.2l2.8-1.5c0.2-0.1,0.3-0.3,0.2-0.5c0-0.1-0.1-0.1-0.2-0.2l-2.6-1.4c-0.2-0.2-0.3-0.3-0.4-0.4
		l-1.4-2.6c-0.1-0.2-0.3-0.3-0.5-0.2c-0.1,0-0.1,0.1-0.2,0.2l-1.4,2.6c-0.2,0.2-0.3,0.3-0.5,0.5l-2.6,1.4c-0.2,0.1-0.3,0.3-0.2,0.5
		c0,0.1,0.1,0.1,0.2,0.2l2.6,1.4c0.2,0.2,0.3,0.3,0.4,0.4l0.8,1.4c0.4,0.8,1.5,0.8,2,0l0.9-1.6
		C1046.7,592.3,1046.7,592.2,1046.8,592.2"/>
	<path class="st6" d="M992.9,616.2l1.4-0.7c0.2-0.1,0.3-0.3,0.2-0.5c0-0.1-0.1-0.1-0.2-0.2l-1.2-0.6c-0.2-0.2-0.3-0.3-0.4-0.4
		l-0.6-1.2c-0.1-0.2-0.3-0.3-0.5-0.2c-0.1,0-0.1,0.1-0.2,0.2l-0.6,1.2c-0.2,0.2-0.3,0.3-0.4,0.4l-1.2,0.6c-0.2,0.1-0.3,0.3-0.2,0.5
		c0,0.1,0.1,0.1,0.2,0.2l1.2,0.6c0.2,0.2,0.3,0.3,0.4,0.4l0,0c0.4,0.8,1.5,0.8,2,0L992.9,616.2C992.8,616.3,992.8,616.3,992.9,616.2
		"/>
	<g>
		<path class="st2" d="M754.8,445.3l2.8-2.8 M746.8,453.3l2.8-2.8 M752.4,443.2c0-1-5.2,4.2-4.5,4.5c2.2,0.8,3.8,2.4,4.6,4.6
			c0.2,0.7,5.5-4.5,4.5-4.5C757.9,447.7,752.4,442.3,752.4,443.2L752.4,443.2z"/>
	</g>
	<path class="st0" d="M864.7,493.1l1.3-0.7c0.2-0.1,0.2-0.3,0.1-0.5c0-0.1-0.1-0.1-0.1-0.1l-1.1-0.6c-0.1-0.1-0.3-0.3-0.4-0.4
		l-0.6-1.1c-0.1-0.2-0.3-0.2-0.5-0.1c-0.1,0-0.1,0.1-0.1,0.1l-0.6,1.1c-0.2,0.2-0.3,0.3-0.4,0.4l-1.1,0.6c-0.2,0.1-0.3,0.3-0.2,0.5
		c0,0.1,0.1,0.1,0.2,0.2l1.1,0.6c0.1,0.1,0.3,0.3,0.4,0.4l0.6,1.1c0.1,0.2,0.3,0.3,0.5,0.2c0.1,0,0.1-0.1,0.2-0.2l0.7-1.3
		C864.6,493.2,864.6,493.1,864.7,493.1"/>
	<path class="st1" d="M1084.9,404.2l1.4-0.7c0.2-0.1,0.3-0.3,0.2-0.5c0-0.1-0.1-0.1-0.2-0.2l-1.4-0.7c-0.1-0.1-0.1-0.1-0.2-0.2
		l-0.7-1.4c-0.1-0.2-0.3-0.3-0.5-0.2c-0.1,0-0.1,0.1-0.2,0.2l-0.6,1.2c-0.2,0.2-0.3,0.3-0.4,0.4l-1.2,0.6c-0.2,0.1-0.3,0.3-0.2,0.5
		c0,0.1,0.1,0.1,0.2,0.2l1.2,0.6c0.2,0.2,0.3,0.3,0.4,0.4l0,0c0.4,0.8,1.5,0.8,2,0L1084.9,404.2
		C1084.8,404.3,1084.8,404.3,1084.9,404.2"/>
	<path class="st7" d="M1712,812l1.8,0.5l1.8-0.5l-0.5,1.8l0.5,1.8l-1.8-0.5l-1.8,0.5l0.5-1.8L1712,812z"/>
	<path class="st0" d="M1009.6,961.4l2.8,1.5c0.2,0.1,0.3,0.3,0.2,0.5c0,0.1-0.1,0.1-0.2,0.2l-2.8,1.5c-0.1,0-0.1,0.1-0.2,0.2
		l-1.5,2.8c-0.1,0.2-0.3,0.3-0.5,0.2c-0.1,0-0.1-0.1-0.2-0.2l-1.5-2.8c0-0.1-0.1-0.1-0.2-0.2l-2.8-1.5c-0.2-0.1-0.3-0.3-0.2-0.5
		c0-0.1,0.1-0.1,0.2-0.2l2.8-1.5c0.1,0,0.1-0.1,0.2-0.2l1.5-2.8c0.1-0.2,0.3-0.3,0.5-0.2c0.1,0,0.1,0.1,0.2,0.2l1.5,2.8
		C1009.5,961.3,1009.6,961.3,1009.6,961.4"/>
	<g transform="translate(1598 622)">
		<path class="st0" d="M-644.7,438l2.8,1.5c0.2,0.1,0.3,0.3,0.2,0.5c0,0.1-0.1,0.1-0.2,0.2l-2.8,1.5c-0.1,0-0.1,0.1-0.2,0.2
			l-1.5,2.8c-0.1,0.2-0.3,0.3-0.5,0.2c-0.1,0-0.1-0.1-0.2-0.2l-1.5-2.8c0-0.1-0.1-0.1-0.2-0.2l-2.8-1.5c-0.2-0.1-0.3-0.3-0.2-0.5
			c0-0.1,0.1-0.1,0.2-0.2l2.8-1.5c0.1,0,0.1-0.1,0.2-0.2l1.5-2.8c0.1-0.2,0.3-0.3,0.5-0.2c0.1,0,0.1,0.1,0.2,0.2l1.5,2.8
			C-644.8,438-644.8,438-644.7,438"/>
	</g>
	<path class="st7" d="M1059.6,1246.2l1.8,0.5l1.8-0.5l-0.5,1.8l0.5,1.8l-1.8-0.5l-1.8,0.5l0.5-1.8L1059.6,1246.2z"/>
	<g>
		<path class="st4" d="M70.5,721l-1.5-1.5 M74.5,725l-1.5-1.5 M70.5,720.8c0.7-0.7,1.9-0.7,2.6,0s0.7,1.9,0,2.6s-1.9,0.7-2.6,0
			C69.8,722.7,69.8,721.6,70.5,720.8L70.5,720.8z"/>
	</g>
	<g class="st8">
		<path class="st9" d="M378.6,216.9c0-4.5-1.6-8.7-4.2-11.9c-2.1-2.2-4.4-0.8-5.1,9.5c-0.8,12.4-7.3,4.1-12.5,10
			c-5.2,5.8-17.3-4.8-14.2,1.4c3.2,6,9.6,10.1,16.9,10.1C370,236.1,378.6,227.5,378.6,216.9"/>
		<path class="st10" d="M359.4,197.8c10.6,0,19.1,8.6,19.1,19.1c0,10.6-8.6,19.1-19.1,19.1s-19.1-8.6-19.1-19.1
			C340.3,206.4,348.9,197.8,359.4,197.8L359.4,197.8z"/>
		<path class="st10" d="M359.4,197.8c10.6,0,19.1,8.6,19.1,19.1c0,10.6-8.6,19.1-19.1,19.1s-19.1-8.6-19.1-19.1
			C340.3,206.4,348.9,197.8,359.4,197.8L359.4,197.8z"/>
		<path class="st10" d="M341.8,209.5c3.7,1.6,8.1,3.1,11.8,3.1c7.6,0,9.3-4.6,18.3-4.8c1.6,0,3.1,0,4.4-0.1 M352,234.6
			c1.4-3.5,4.2-8.5,9.7-11.3c6.5-3.3,11.2-0.6,16.1-0.8"/>
		<path class="st10" d="M343.3,227.3c2.9-0.4,7.8-1.7,11.8-5.7c6.2-6.2,7.9-6.4,11.7-6.4c3.1,0,7.7,3.2,11.6,3.4 M351.7,199.5
			c4,0.6,8.8,1.9,11.9,4.4c2.4,2,6.5,1.8,10.6,1 M347.8,201.8c1.5,0.3,2.8,0.7,3.7,0.9c2.9,0.9,5.5,1.3,4.7,3.3
			c-0.9,2.6-5.3,1.1-8.2,0.2c-1-0.3-2.1-0.9-3.3-1.5 M340.4,214.7c3.8,0.5,9.1,1.8,9.7,4.8c0.4,2-3.9,3.2-8.7,3.8 M354.5,235.4
			c3.3-3.5,11.5-10.6,21.1-8.3l0,0"/>
	</g>
	<g class="st8">
		<path class="st9" d="M1460.6,573.8c-40.5-52.8-44,39.2-122.5,23.7c22,27.9,56.1,45.8,94.4,45.8c66.4,0,120.2-53.8,120.2-120.2
			c0-39.4-18.9-74.3-48.2-96.2l-5,2C1521.5,456.2,1480.1,599.2,1460.6,573.8"/>
		<path class="st10" d="M1312.3,521.3c0.1-7.8,1-15.8,2.7-23.6 M1357.4,616.7c-3-2.4-5.8-4.9-8.5-7.5 M1472.4,636.1
			c-9.9,3.5-20.2,5.7-30.7,6.5 M1545.8,484.1c1.5,4.5,2.8,9.1,3.8,13.8 M1511.4,432.7c3.6,3.2,7,6.5,10.2,10.1 M1412.2,404.7
			c7.6-1.3,15.3-1.9,23-1.7"/>
		<path class="st11" d="M1357.7,618.8c4.5,4,10,7.7,16.6,10.8c0.3,0.1,0.5,0.3,0.7,0.6c0.7,1.1,3.4,4,4.3,4.9
			c0.2,0.2,0.4,0.3,0.6,0.4l8.8,3.2c0.3,0.1,0.5,0.2,0.7,0.5l5.7,6.5c0.4,0.4,0.9,0.6,1.5,0.5l6.1-1.1c0.2,0,0.4,0,0.6,0l4.3,1
			c0.2,0,0.4,0.1,0.7,0l5-0.9c0.2,0,0.4,0,0.6,0l9.5,2c0.3,0.1,0.7,0,1-0.1l5-2.3c0.2-0.1,0.5-0.2,0.7-0.2h7.9
			c0.3,0,0.6-0.1,0.9-0.2l5-3.1c1.1-0.7,0.6-2.3-0.7-2.2l-3.9,0.1c-0.3,0-0.5,0-0.8-0.2l-9.5-4.5c-0.3-0.2-0.7-0.2-1.1-0.1l-5.4,1.3
			c-0.4,0.1-0.8,0-1.1-0.1l-15.3-7.6c-0.2-0.1-0.3-0.1-0.5-0.1l-12.3-1.8c-0.3,0-0.5-0.1-0.7-0.3l-9.9-7.4c-0.3-0.2-0.7-0.3-1-0.3
			l-11.7,0.3c-0.1,0-0.2,0-0.4,0l-10.6-2.2C1357.5,615.6,1356.5,617.7,1357.7,618.8"/>
		<path class="st10" d="M1357.7,618.8c4.5,4,10,7.7,16.6,10.8c0.3,0.1,0.5,0.3,0.7,0.6c0.7,1.1,3.4,4,4.3,4.9
			c0.2,0.2,0.4,0.3,0.6,0.4l8.8,3.2c0.3,0.1,0.5,0.2,0.7,0.5l5.7,6.5c0.4,0.4,0.9,0.6,1.5,0.5l6.1-1.1c0.2,0,0.4,0,0.6,0l4.3,1
			c0.2,0,0.4,0.1,0.7,0l5-0.9c0.2,0,0.4,0,0.6,0l9.5,2c0.3,0.1,0.7,0,1-0.1l5-2.3c0.2-0.1,0.5-0.2,0.7-0.2h7.9
			c0.3,0,0.6-0.1,0.9-0.2l5-3.1c1.1-0.7,0.6-2.3-0.7-2.2l-3.9,0.1c-0.3,0-0.5,0-0.8-0.2l-9.5-4.5c-0.3-0.2-0.7-0.2-1.1-0.1l-5.4,1.3
			c-0.4,0.1-0.8,0-1.1-0.1l-15.3-7.6c-0.2-0.1-0.3-0.1-0.5-0.1l-12.3-1.8c-0.3,0-0.5-0.1-0.7-0.3l-9.9-7.4c-0.3-0.2-0.7-0.3-1-0.3
			l-11.7,0.3c-0.1,0-0.2,0-0.4,0l-10.6-2.2C1357.5,615.6,1356.5,617.7,1357.7,618.8L1357.7,618.8z"/>
		<path class="st11" d="M1524.2,443.1c8.5,9.6,19.7,26.2,22.9,39.2c0.1,0.5,0,1.1-0.4,1.5c-3.7,3.9-21.4,20.3-23.3,22
			c-0.1,0.1-0.2,0.2-0.4,0.3l-10.5,5.1c-0.1,0.1-0.3,0.1-0.4,0.1l-5.5,1.1c-0.4,0.1-0.8,0.3-1,0.7l-6.5,9.3
			c-0.5,0.7-1.4,0.9-2.1,0.5l-24.4-13.6c-0.4-0.2-0.7-0.7-0.8-1.2l-3.1-20c-0.1-0.7,0.2-1.3,0.8-1.7l15.9-8.9c0.4-0.2,0.7-0.6,0.8-1
			l6.7-27c0.2-0.6,0.6-1.1,1.3-1.2l28.7-5.7C1523.3,442.4,1523.9,442.6,1524.2,443.1"/>
		<path class="st10" d="M1524.2,443.1c8.5,9.6,19.7,26.2,22.9,39.2c0.1,0.5,0,1.1-0.4,1.5c-3.7,3.9-21.4,20.3-23.3,22
			c-0.1,0.1-0.2,0.2-0.4,0.3l-10.5,5.1c-0.1,0.1-0.3,0.1-0.4,0.1l-5.5,1.1c-0.4,0.1-0.8,0.3-1,0.7l-6.5,9.3
			c-0.5,0.7-1.4,0.9-2.1,0.5l-24.4-13.6c-0.4-0.2-0.7-0.7-0.8-1.2l-3.1-20c-0.1-0.7,0.2-1.3,0.8-1.7l15.9-8.9c0.4-0.2,0.7-0.6,0.8-1
			l6.7-27c0.2-0.6,0.6-1.1,1.3-1.2l28.7-5.7C1523.3,442.4,1523.9,442.6,1524.2,443.1L1524.2,443.1z"/>
		<path class="st11" d="M1312.3,548.8c-1.9-8.6-2.7-17.4-2.6-26.2c0-1.4,1.7-2.1,2.7-1.2l7.9,6.6c0.3,0.3,0.8,0.4,1.2,0.4l12.9-1.5
			c0.4,0,0.7,0,1.1,0.2l15.9,9.9c0.2,0.1,0.4,0.2,0.5,0.2l16.2,3.2c0.4,0.1,0.8,0,1.1-0.2l14-7.5c0.7-0.4,1.5-0.2,2,0.4l10.2,11.4
			c0.2,0.3,0.4,0.6,0.4,1l1.9,27.8c0,0.5-0.2,1-0.5,1.3l-13.4,12.2c-0.2,0.2-0.4,0.5-0.5,0.8l-3.9,13.9c-0.2,0.6-0.7,1.1-1.3,1.2
			l-16.9,2.5c-0.2,0-0.3,0-0.5,0l-7.2-1c-0.7-0.1-1.3,0.2-1.6,0.8c-0.5,0.9-1.4,2.3-2.1,3.5c-0.5,0.8-1.5,1-2.3,0.6
			c-0.1-0.1-0.2-0.1-0.3-0.2c-7.5-6.7-13.8-14.1-19-22h21.6c7,0-3.5-3.7-11-3.2c-1,0.1-2,0.1-3,0.2c-0.2-2.4-2.8-6.5-8.6-6.6
			c0.4-0.6,0.8-1.2,1.1-1.9C1339.7,556.5,1324.9,546.7,1312.3,548.8L1312.3,548.8z"/>
		<path class="st10" d="M1328.3,586.8c5.2,7.9,11.5,15.3,19,22c0.7,0.6,1.7,0.6,2.3-0.1c0.1-0.1,0.1-0.2,0.2-0.3
			c0.7-1.2,1.5-2.6,2.1-3.5c0.3-0.6,1-0.9,1.6-0.8l7.2,1c0.2,0,0.3,0,0.5,0l16.9-2.5c0.6-0.1,1.2-0.6,1.3-1.2l3.9-13.9
			c0.1-0.3,0.2-0.6,0.5-0.8l13.4-12.2c0.4-0.3,0.6-0.8,0.5-1.3l-1.9-27.8c0-0.4-0.2-0.7-0.4-1l-10.2-11.4c-0.5-0.6-1.3-0.7-2-0.4
			l-14,7.5c-0.3,0.2-0.7,0.2-1.1,0.2l-16.2-3.2c-0.2,0-0.4-0.1-0.5-0.2l-15.9-9.9c-0.3-0.2-0.7-0.3-1.1-0.2l-12.9,1.5
			c-0.4,0.1-0.9-0.1-1.2-0.4l-7.9-6.6c-1.1-0.9-2.7-0.2-2.7,1.2c-0.1,8.8,0.7,17.6,2.6,26.2 M1410.3,403.3
			c-40.3,6.9-84.5,37.8-96.6,92.7c-0.3,1.2,0.8,2.2,2,2c1.2-0.3,2.6-0.6,3.5-0.8c0.6-0.1,1.2,0,1.6,0.5l9,10c0.4,0.4,1,0.6,1.6,0.5
			l23.5-5c0.4-0.1,0.8-0.3,1-0.6l14.7-20.4c0.4-0.6,0.4-1.5-0.1-2l-7.5-8.4c-0.3-0.4-0.5-0.9-0.4-1.4l2.4-13.2
			c0.1-0.5,0.4-1,0.9-1.2l14.2-6.5c0.8-0.4,1.8,0,2.2,0.8c0.1,0.2,0.1,0.4,0.1,0.6l0.7,11.1c0,0.4,0.2,0.8,0.5,1.1l19.4,18.4
			c0.4,0.4,1,0.5,1.5,0.4l16.5-4.4c0.2,0,0.3-0.1,0.5-0.1c2.1,0.1,17.4,0.8,17.6,0.3s1.7-16,2-18.7c0-0.3,0.1-0.5,0.3-0.8l9.5-13.7
			c0.4-0.6,0.4-1.4-0.1-2l-16.1-19.3c-0.2-0.2-0.4-0.4-0.7-0.5l-19.9-7.7c-0.6-0.2-0.9-0.7-1-1.3c-0.3-1.9-0.8-6.3-1-8.9
			C1412,403.9,1411.2,403.2,1410.3,403.3C1410.4,403.2,1410.4,403.3,1410.3,403.3L1410.3,403.3z"/>
		<path class="st11" d="M1548.8,498.7l-4.9,11.1c-0.2,0.4-0.6,0.8-1,0.9l-12.2,3.6c-0.3,0.1-0.5,0.2-0.7,0.5l-10.9,11.8
			c-0.3,0.4-0.5,0.8-0.4,1.3l2.1,16.6c0.1,0.5-0.1,0.9-0.4,1.3l-9.2,10.6c-0.3,0.4-0.8,0.6-1.3,0.6l-16.4-0.6
			c-0.9,0-1.6,0.7-1.7,1.5l-1.1,19.2c0,0.2-0.1,0.4-0.1,0.6l-7.6,17.1c-0.2,0.4-0.2,0.9,0,1.3l6,14.8c0.2,0.5,0.2,1-0.1,1.4
			l-8.3,14.7c-0.1,0.1-0.2,0.3-0.3,0.4c-0.8,0.8-4.7,4.5-7.5,7.4c-1.1,1.2,0,3.1,1.6,2.7c26.2-6.3,91.2-51.3,77.6-138.5
			C1551.7,497.5,1549.5,497.2,1548.8,498.7"/>
		<path class="st10" d="M1548.8,498.7l-4.9,11.1c-0.2,0.4-0.6,0.8-1,0.9l-12.2,3.6c-0.3,0.1-0.5,0.2-0.7,0.5l-10.9,11.8
			c-0.3,0.4-0.5,0.8-0.4,1.3l2.1,16.6c0.1,0.5-0.1,0.9-0.4,1.3l-9.2,10.6c-0.3,0.4-0.8,0.6-1.3,0.6l-16.4-0.6
			c-0.9,0-1.6,0.7-1.7,1.5l-1.1,19.2c0,0.2-0.1,0.4-0.1,0.6l-7.6,17.1c-0.2,0.4-0.2,0.9,0,1.3l6,14.8c0.2,0.5,0.2,1-0.1,1.4
			l-8.3,14.7c-0.1,0.1-0.2,0.3-0.3,0.4c-0.8,0.8-4.7,4.5-7.5,7.4c-1.1,1.2,0,3.1,1.6,2.7c26.2-6.3,91.2-51.3,77.6-138.5
			C1551.7,497.5,1549.5,497.2,1548.8,498.7L1548.8,498.7z M1436.8,401.3l14.2-0.8c0.4,0,0.8,0.1,1.1,0.3l2.2,1.7
			c0.4,0.3,0.9,0.4,1.4,0.3l8.7-2.1c0.4-0.1,0.9,0,1.3,0.2l3.6,2.3c0.3,0.2,0.8,0.3,1.2,0.2l5.5-1c0.3-0.1,0.6,0,0.9,0.1l1.9,0.8
			c0.4,0.1,0.7,0.4,0.8,0.8l1.8,3.6c0.2,0.5,0.7,0.8,1.2,0.9l3.8,0.7c0.4,0.1,0.7,0.3,1,0.6l2.8,3.6c0.1,0.1,0.2,0.2,0.4,0.3
			l6.4,4.3c0.2,0.1,0.4,0.3,0.5,0.5c0.4,0.8,1.5,2.7,1.8,2.9s9.9,8.1,12.6,10.3c0.3,0.2,0.2,0.7-0.2,0.8c-0.9,0.2-2.2,0.5-2.9,0.6
			c-0.2,0-0.5,0-0.7-0.1l-8.7-4.1c-0.1-0.1-0.2-0.1-0.3-0.1l-9.5-2.2c-0.2,0-0.4-0.1-0.6,0l-9.6,1.3c-0.4,0.1-0.8,0-1.1-0.3
			l-14.6-10c-0.2-0.1-0.3-0.2-0.5-0.2l-16.9-4.4c-0.3-0.1-0.7-0.3-0.9-0.6l-4.4-5.7c-0.2-0.2-0.4-0.4-0.6-0.5l-4.2-1.9
			C1434.6,403.7,1435.1,401.4,1436.8,401.3L1436.8,401.3z"/>
		<path class="st10" d="M1545.3,476.3h69.6c11.2,0,6.4-4.1-7.7-2.9c-0.7,0.1-1.4,0.1-2.1,0.2c-1.6-1.7-5.5-3.8-9.3-2.6
			c-0.6-4.6-8.2-10.1-15.4-5.3c-0.5-7.1-7.7-13.9-15.2-7.8c2.2-11.5-0.8-24.2-18.3-22.6c-10.8,0.9-15.7,6.5-17.2,13.2 M1338.9,583.6
			c-1,0.1-2,0.1-3,0.2c-0.2-2.4-2.8-6.5-8.6-6.6c0.4-0.6,0.8-1.2,1.1-1.9c16.6-27.6-23-35.7-29.2-15.5c-1.3,4.3-1.8,8.5-1.8,12.2
			c-2-1.3-4.7-2.1-8.3-2.1c-10,0-13.3,8.8-12.3,13c-1.8-1.1-3.8-2.2-8.3-1.8c-8.6,0.8-17.2,5.7-4.1,5.7h85.6
			C1356.9,586.8,1346.4,583.1,1338.9,583.6L1338.9,583.6z"/>
	</g>
</g>
<g class="st12">
	<g>
		<g>
			<path class="st13" d="M861.7,721.7c0,0,1.2,11.3-1.1,18.9c-0.8,2.8-2.2,5.1-4.2,6.2c-9.8,5.2-14.8-0.2-19.6-11.7
				c-5.7-13.7-4.9-63.5-4.9-63.5l4.4,0l9.2,0.1L861.7,721.7z"/>
		</g>
		<g class="st14">
			<path class="st15" d="M861.7,721.7c0,0,1.2,11.3-1.1,18.9c-9.6,5-14.6-0.4-19.4-11.8c-4.4-10.7-4.9-43.4-4.9-57.2l9.2,0.1
				L861.7,721.7z"/>
		</g>
		<g>
			<path class="st16" d="M853.2,749.7c-2.5,0.7-4.8,0.7-6.9-0.1c-4.2-1.5-7.4-5.7-10.9-14.1c-5.7-13.8-5-62.1-5-64.2l0-1.5l16.2,0.1
				l16.6,51.3l0,0.2c0.2,2.3,2.1,22.2-6.1,26.6C855.8,748.8,854.5,749.4,853.2,749.7z M833.5,673c-0.1,8.5-0.2,49.5,4.8,61.4
				c3.1,7.4,5.9,11.2,9.1,12.3c2.3,0.8,5,0.4,8.3-1.4c5.4-2.8,5.1-17.7,4.5-23.4l-15.8-48.9L833.5,673z"/>
		</g>
		<g>
			<path class="st13" d="M846.4,728c0,0,6.2,32.1,16.1,49c0,0-10.3,11.3-0.6,15c10.6,4,33.3-2.7,35-12.3
				c1.7-9.8-16.1-48.1-23.6-76.7"/>
		</g>
		<g>
			<path class="st16" d="M869.8,758.9c-4.8,1.4-10.1,2.1-15.4,1.5c-0.6-0.1-1.1-0.7-1-1.3c0.1-0.6,0.7-1.1,1.3-1
				c16.1,1.8,32.3-10.1,32.5-10.2c0.5-0.4,1.3-0.3,1.6,0.2c0.4,0.5,0.3,1.3-0.2,1.6C888.1,750.1,880.2,755.9,869.8,758.9z"/>
		</g>
		<g>
			<path class="st16" d="M882,773.7c-1.7-0.3-3.4-0.4-5-0.4c-1.7,0.1-3.3,0.3-4.9,0.7c-1.6,0.4-3.2,0.9-4.6,1.7
				c-0.7,0.3-1.4,0.8-2.1,1.2c-0.4,0.2-0.7,0.4-1,0.7l-1,0.7l-0.1,0.1c-0.7,0.5-1.7,0.3-2.2-0.4c-0.5-0.7-0.3-1.7,0.4-2.2
				c0.1,0,0.1-0.1,0.2-0.1l1.2-0.6c0.4-0.2,0.8-0.4,1.2-0.6c0.8-0.3,1.7-0.7,2.5-0.9c1.7-0.6,3.5-0.9,5.2-1.1
				c1.7-0.2,3.5-0.1,5.2,0.1C878.7,772.8,880.4,773.1,882,773.7z"/>
		</g>
		<g class="st14">
			<path class="st15" d="M858.4,789.5c0.6,1,1.7,1.9,3.4,2.5c10.6,4,33.3-2.7,35-12.3c1.7-9.8-16.1-48.1-23.6-76.7l-26.8,25
				c0,0,0.6,3.3,1.8,8.3c3.4,2,9.5,4.3,20.2,4.8c14.5,0.7,27.5,38.8,12.4,45.1C875.5,788.5,865.2,790.3,858.4,789.5z"/>
		</g>
		<g>
			<path class="st16" d="M881.5,793c-7.3,2.1-15.1,2.4-20.2,0.5c-2.7-1-4.4-2.7-5-5c-1.1-4.4,2.6-9.5,4.3-11.6
				c-9.6-17.1-15.5-47.2-15.7-48.5c-0.2-0.8,0.4-1.7,1.2-1.8c0.8-0.2,1.7,0.4,1.8,1.2c0.1,0.3,6.2,32,15.9,48.5l0.6,1l-0.8,0.8
				c-1.5,1.6-5.1,6.5-4.3,9.7c0.3,1.3,1.3,2.2,3,2.9c6.3,2.4,18.4,0.6,26.3-3.9c3.8-2.2,6.2-4.7,6.6-7.2c0.9-5.2-4.7-20.7-10.7-37.1
				c-4.5-12.5-9.7-26.7-12.9-39c-0.2-0.8,0.3-1.7,1.1-1.9c0.8-0.2,1.7,0.3,1.9,1.1c3.2,12.1,8.3,26.2,12.8,38.7
				c6.6,18.2,11.8,32.7,10.8,38.7c-0.6,3.4-3.4,6.7-8.1,9.4C887.6,790.9,884.6,792.1,881.5,793z"/>
		</g>
		<g>
			<path class="st13" d="M791,683.6c0.7,5.7-4.7,10.6-7.9,12.9c-1.4,1-2.3,2.5-2.7,4.2c-1.4,6.9-5.7,24.5-13.8,30.1
				c-3.5,2.4-7.5,2.9-11.2,2.5c-6-0.6-11-3.3-11-3.3L733,709.8l-6.3-11.1l-6.6-11.8c0,0,5.6,3.5,12.3,7.1c2.7,1.5,5.7,3,8.5,4.4
				c5.9,2.9,11.2,4.9,12.8,3.8c1.7-1.1,3.3-8.7,7.7-18.2c1.1-2.4,5.4-3.4,9.4-5.9c6.4-3.9,11.8-5.6,15-4.3c2.5,1,3.5,5.2,4.3,6.8
				C790.6,681.7,790.9,682.6,791,683.6z"/>
		</g>
		<g class="st14">
			<path class="st15" d="M791,683.6c0.7,5.7-4.7,10.6-7.9,12.9c-1.4,1-2.3,2.5-2.7,4.2c-1.4,6.9-5.7,24.5-13.8,30.1
				c-9.1,6.3-22.1-0.7-22.1-0.7l-17.6-31.5c14.4,2.4,22.3,23.2,33.1,18.9c18.1-7.2,12.1-26.1,9.1-34.4
				C768,680.6,782.9,695.6,791,683.6z"/>
		</g>
		<g>
			<path class="st16" d="M762.8,734.3c-8.9,2.5-18.6-2.6-19.1-2.8c-0.8-0.4-1-1.3-0.6-2.1c0.4-0.8,1.3-1,2.1-0.6
				c0.1,0.1,12.3,6.5,20.5,0.8c7.8-5.4,12.1-23.7,13.2-29.1c0.4-2.1,1.6-3.9,3.3-5.2c3.7-2.7,9.4-8.1,6.5-13.9
				c-0.2-0.4-0.4-0.9-0.6-1.5c-0.6-1.5-1.5-4-2.8-4.6c-2.6-1.1-7.6,0.4-13.6,4.2c-1.5,0.9-3,1.7-4.4,2.3c-2,1-4,1.9-4.4,2.9
				c-2,4.3-3.4,8.3-4.6,11.4c-1.5,4.2-2.3,6.5-3.7,7.4c-1.7,1.1-5.4,1.2-19.9-6.6c-7.8-4.2-15.2-8.7-15.3-8.7
				c-0.7-0.4-1-1.4-0.5-2.1c0.4-0.7,1.4-1,2.1-0.5c0.1,0,7.2,4.4,14.8,8.5c14,7.5,16.7,7,17.1,6.9c0.6-0.5,1.6-3.4,2.5-5.9
				c1.2-3.2,2.6-7.2,4.7-11.7c0.9-2,3.3-3.1,5.9-4.4c1.4-0.6,2.8-1.3,4.1-2.1c4.9-3,11.8-6.3,16.4-4.4c2.6,1,3.8,4.2,4.6,6.3
				c0.2,0.5,0.4,0.9,0.5,1.2c2.8,5.8,0.1,12.2-7.5,17.8c-1.1,0.8-1.8,2-2.1,3.3c-1.5,7.4-5.9,25.2-14.5,31
				C765.9,733.1,764.4,733.8,762.8,734.3z"/>
		</g>
		<g>
			<path class="st13" d="M780.6,811.8c0,1.2-0.5,2.5-1.6,3.9c-6.9,9-29.7,15.3-36.2,8.1c-6.6-7.4-11.8-49.3-20.6-77.6l36,7
				c0,0,1.2,3.1,2.8,8c3.5,10.4,9.1,28.8,9.5,42.1C770.5,803.4,780.6,806.2,780.6,811.8z"/>
		</g>
		<g class="st14">
			<path class="st15" d="M780.6,811.8c0,1.2-0.5,2.5-1.6,3.9c-6.9,9-29.7,15.3-36.2,8.1c-6.6-7.4-11.8-49.3-20.6-77.6l36,7
				c0,0,1.2,3.1,2.8,8c-1.8,3.5-5.8,8.6-14.6,14.8c-11.9,8.3-2.8,47.5,13.4,44.8C765.5,820,775.2,816.1,780.6,811.8z"/>
		</g>
		<g>
			<path class="st16" d="M762.8,827c-3.1,0.9-6.3,1.5-9.3,1.6c-5.4,0.2-9.5-1-11.9-3.6c-4.1-4.6-7.3-19.6-11.3-38.5
				c-2.8-13-5.9-27.7-9.6-39.6c-0.3-0.8,0.2-1.7,1-1.9c0.8-0.3,1.7,0.2,1.9,1c3.8,12.1,6.9,26.8,9.7,39.9
				c3.6,17.1,7.1,33.2,10.6,37.1c1.7,1.9,5,2.8,9.4,2.6c9.1-0.4,20.3-5.2,24.3-10.6c1.1-1.5,1.5-2.8,1.1-4c-1.1-3.1-6.7-5.3-8.8-5.9
				l-1.1-0.3l0-1.1c-0.5-19.1-12.1-49.3-12.2-49.6c-0.3-0.8,0.1-1.7,0.9-2c0.8-0.3,1.7,0.1,2,0.9c0.5,1.2,11.4,29.9,12.4,49.5
				c2.5,0.9,8.3,3.3,9.8,7.6c0.8,2.2,0.2,4.6-1.5,6.9C777,821,770.1,824.9,762.8,827z"/>
		</g>
		<g>
			<path class="st16" d="M754.7,791.8c-10.4,3-20.1,2.3-20.7,2.2c-0.6-0.1-1.1-0.6-1.1-1.3c0.1-0.6,0.6-1.1,1.3-1.1
				c0.2,0,20.3,1.5,32.9-8.6c0.5-0.4,1.3-0.3,1.7,0.2c0.4,0.5,0.3,1.3-0.2,1.7C764.4,788.3,759.5,790.5,754.7,791.8z"/>
		</g>
		<g>
			<path class="st16" d="M752.2,810.9c1-1.3,2.3-2.5,3.7-3.6c1.4-1.1,2.8-2,4.4-2.8c1.6-0.8,3.2-1.4,5-1.9c0.9-0.3,1.7-0.4,2.6-0.5
				c0.4-0.1,0.9-0.1,1.3-0.2l1.4-0.1c0.9-0.1,1.6,0.6,1.7,1.4c0.1,0.9-0.6,1.6-1.4,1.7c-0.1,0-0.2,0-0.2,0l-0.1,0l-1.2-0.1
				c-0.4,0-0.8-0.1-1.2,0c-0.8,0-1.6,0-2.4,0.1c-1.6,0.1-3.2,0.5-4.8,1c-1.6,0.5-3.1,1.2-4.6,2C754.8,808.7,753.4,809.7,752.2,810.9
				z"/>
		</g>
		<g>
			<path class="st13" d="M684.7,782.3c9.7,5.5,24.7-4.2,24.7-4.2l-23.2-54.9l-4.7-11.1c0,0-9.1,4.2-14.9,10.1
				c-2.8,2.8-4.8,6.1-4.6,9.4C662.5,743.2,676.8,777.8,684.7,782.3z"/>
		</g>
		<g class="st14">
			<path class="st15" d="M668.9,755.6c4.9,12.1,11.4,24.2,15.8,26.7c9.7,5.5,24.7-4.2,24.7-4.2l-27.9-66c0,0-0.2,0.1-0.5,0.2
				l21.8,51.5c0,0-15,9.7-24.7,4.2C675.5,766.5,672.2,761.8,668.9,755.6z"/>
		</g>
		<g>
			<path class="st16" d="M699.1,784.4c-4.9,1.4-10.5,1.9-15.1-0.7c-5.6-3.1-12.2-17.4-14.8-23.4c-5-11.6-8.5-22.8-8.7-28.6
				c-0.5-11.3,19.6-20.6,20.5-21c0.8-0.4,1.7,0,2.1,0.8c0.4,0.8,0,1.7-0.8,2.1c-5.3,2.4-19,10.4-18.7,18c0.5,11.4,14.8,45.5,22,49.5
				c8.7,4.9,23-4.1,23.1-4.2c0.7-0.5,1.7-0.3,2.1,0.5c0.5,0.7,0.3,1.7-0.5,2.1C709.9,779.6,705.1,782.7,699.1,784.4z"/>
		</g>
		<g>
			<path class="st13" d="M672.2,760.2l11.4-3.9c1-0.3,2.1,0,2.7,0.9c2.2,3.3,6.8,11.2,4.5,15.4c-1.9,3.5-6.7,5.2-10.4,4.1
				c-4.2-1.3-7.9-9.3-9.6-13.4C670.3,762.1,671,760.6,672.2,760.2z"/>
		</g>
		<g class="st14">
			<path class="st15" d="M686.4,757.3c2.2,3.3,6.8,11.2,4.5,15.4c-1.9,3.5-6.7,5.2-10.4,4.1c-2.6-0.8-5-4.1-6.8-7.5
				c1.3,1.6,2.6,2.7,4,3.2c7.9,3,9.3-5.1,9.3-5.1s1.4,1.2,2,1.1c2.6-0.7-1.1-8-3.1-11.7C686,756.8,686.2,757,686.4,757.3z"/>
		</g>
		<g>
			<path class="st16" d="M685.9,778.2c-1.9,0.6-4,0.6-6,0c-4.5-1.4-8.2-8.5-10.6-14.3c-0.4-1-0.4-2.1,0.1-3.1c0.4-1,1.3-1.7,2.3-2.1
				l0,0l11.4-3.9c1.7-0.6,3.5,0.1,4.5,1.6c2.8,4.3,7.1,12.2,4.5,17C690.9,775.7,688.6,777.4,685.9,778.2z M672.7,761.7
				c-0.3,0.1-0.4,0.3-0.5,0.4c-0.1,0.1-0.1,0.4,0,0.6c2.9,7,6.1,11.7,8.6,12.5c3.2,1,7.1-0.6,8.6-3.3c1.3-2.4-0.4-7.7-4.4-13.8
				c-0.2-0.3-0.6-0.4-0.9-0.3L672.7,761.7z"/>
		</g>
		<g>
			<path class="st16" d="M684.5,760.7c0.5,1.3,1.2,2.6,1.8,3.9c0.6,1.4,1.1,2.8,1.5,4.3c0.3,1.5,0.5,3.2,0,4.9
				c-0.2,0.8-0.6,1.7-1.1,2.4c-0.5,0.7-1.1,1.4-1.7,1.9c-0.6,0.6-1.6,0.5-2.2-0.2c-0.6-0.6-0.5-1.6,0.2-2.2c0,0,0.1-0.1,0.1-0.1
				c1-0.7,1.7-1.6,2.1-2.7c0.4-1.1,0.4-2.4,0.3-3.7c-0.2-1.3-0.6-2.7-1-4c-0.5-1.4-1-2.7-1.5-4.1c-0.1-0.4,0.1-0.9,0.5-1
				C683.9,760.1,684.4,760.3,684.5,760.7L684.5,760.7z"/>
		</g>
		<g>
			<path class="st15" d="M666.5,728.6c2-1.1,4.1-2,6.3-2.9c1.1-0.4,2.2-0.8,3.3-1.2c1.1-0.4,2.2-0.7,3.4-1c0.8-0.2,1.7,0.3,1.9,1.1
				c0.2,0.8-0.3,1.7-1.1,1.9c-0.1,0-0.2,0-0.3,0.1l0,0c-1.1,0.1-2.2,0.1-3.3,0.2c-1.1,0.1-2.2,0.3-3.3,0.4
				C670.9,727.6,668.7,728,666.5,728.6z"/>
		</g>
		<g class="st14">
			<path class="st15" d="M668.6,721.3c6.4,1.6,13.1,2,19.6,1l-4.7-11.1C683.5,711.2,674.4,715.4,668.6,721.3z"/>
		</g>
		<g class="st14">
			<path class="st15" d="M731.8,760.5c0.4,0.6,0.8,1.1,1.1,1.7C732.6,761.6,732.2,761,731.8,760.5z"/>
		</g>
		<g>
			<path class="st13" d="M761.1,751.6c-0.9,10.2-12.9,19-18.3,21.8c-1.2,0.6-2.4,1.2-3.6,1.7c-8.9,3.7-16.8,3.8-19.7,3.8
				c-5.6-0.1-10.9-1.6-15.6-4.4c-0.4-0.3-0.8-0.5-1.3-0.8c-0.4-0.2-0.7-0.5-1.1-0.8c-1.6-1.2-3.1-2.6-4.5-4.1
				c-0.1-0.1-0.1-0.2-0.2-0.2c-2.2-2.5-4.4-6-6.4-10.5c-3.1-6.7-5.8-15.4-7.9-25.7c-0.5-2.7-1-5.5-1.5-8.3c0-0.1,0-0.2-0.1-0.3
				c0-0.1,0-0.2,0-0.3c-0.3-2-0.6-4-0.8-6.1c0-0.3-0.1-0.6-0.1-0.9c-0.7-6.1-1.3-12.6-1.5-19.4l42.2-20.7
				c4.2,6.2,8.1,12.1,11.7,17.7c1.8,2.8,3.5,5.5,5.2,8.2c0.2,0.3,0.4,0.6,0.6,0.9c0.5,0.8,1,1.6,1.5,2.4c0.2,0.3,0.4,0.7,0.6,1
				c6.5,10.6,11.6,19.6,15.1,26.9C759.4,741.7,761.4,747.9,761.1,751.6z"/>
		</g>
		<g class="st14">
			<path class="st15" d="M696.8,744.8c1.3,6.7,4,19.9,5.9,28.8c-0.4-0.2-0.7-0.5-1.1-0.8c-1.6-1.2-3.1-2.6-4.5-4.1
				c-0.1-0.1-0.1-0.2-0.2-0.2c-2.2-2.5-4.4-6-6.4-10.5c-3.1-6.7-5.8-15.4-7.9-25.7C685.8,732.5,694.8,734,696.8,744.8z"/>
		</g>
		<g class="st14">
			<path class="st15" d="M697.1,768.7c5.9,6.5,13.9,9.9,22.4,10.1c3.3,0.1,12.9-0.1,23.3-5.4c5.4-2.8,17.4-11.6,18.3-21.8
				c0.3-3.2-1.2-8.2-4.2-15c1.6,4.1,2.3,7.3,1.9,9.5c-1.5,8.7-12.9,17.5-18.3,20.1c-10.5,5.2-20.6,5.4-23.8,5.6
				c-8.3,0.4-15.8-2-21.2-7.1c-2.2-2.1-4.3-5.3-6.1-9.4C691.7,761.1,694.3,765.7,697.1,768.7z"/>
		</g>
		<g class="st14">
			<path class="st15" d="M748.7,720.7c3.4,6,6.1,11.3,8.2,15.9C755.2,732.3,752.4,726.9,748.7,720.7z"/>
		</g>
		<g class="st14">
			<path class="st15" d="M689.3,755.3c-1-2.5-2-5.2-2.9-8.1C687.2,750.2,688.2,752.9,689.3,755.3z"/>
		</g>
		<g>
			<path class="st16" d="M740.9,706.4c4.1,4.6,7.3,9.9,10.3,15.2c1.5,2.7,2.9,5.4,4.2,8.2c1.4,2.7,2.7,5.5,3.9,8.4
				c1.2,2.9,2.3,5.8,3,8.9l0.2,1.2c0.1,0.4,0.1,0.8,0.1,1.2l0.1,0.6l0,0.7c0,0.4,0,0.9-0.1,1.3c-0.2,1.7-0.6,3.3-1.3,4.8
				c-1.3,3-3.2,5.7-5.3,8c-2.1,2.4-4.5,4.4-7,6.3l0,0l0,0l-5.3,3.4l-0.1,0l-0.1,0c-4.8,2.4-9.9,4.1-15.2,4.9c-2.6,0.4-5.3,0.6-8,0.6
				c-1.3,0-2.7-0.1-4.1-0.2c-1.3-0.2-2.7-0.4-4-0.7c-2.7-0.6-5.2-1.6-7.6-2.9c-2.4-1.3-4.6-2.9-6.6-4.7l-0.7-0.7
				c-0.2-0.2-0.5-0.5-0.7-0.7c-0.5-0.5-0.9-1-1.4-1.5c-0.9-1.1-1.7-2.2-2.4-3.3c-1.5-2.3-2.7-4.6-3.8-7.1c-2.2-4.8-3.9-9.8-5.3-14.9
				c-1.4-5.1-2.5-10.2-3.5-15.3c-0.5-2.6-0.9-5.2-1.2-7.8c-0.4-2.6-0.6-5.2-1-7.8c-0.3-2.6-0.6-5.2-0.6-7.8c-0.1-2.6,0-5.2,0.6-7.9
				c0.1-0.3,0.4-0.5,0.6-0.4c0.2,0,0.3,0.2,0.4,0.4l0,0c0.4,1.3,0.7,2.6,0.9,3.8c0.2,1.3,0.4,2.6,0.6,3.8c0.1,0.6,0.1,1.3,0.2,1.9
				c0.1,0.6,0.1,1.3,0.2,1.9l0.3,3.9c0.2,2.6,0.5,5.1,0.9,7.7c0.4,2.6,0.8,5.1,1.2,7.6c0.9,5.1,2,10.1,3.4,15
				c1.4,4.9,3,9.8,5.1,14.4c1,2.3,2.2,4.6,3.6,6.7c0.7,1.1,1.4,2,2.2,3c0.4,0.5,0.8,0.9,1.2,1.4c0.2,0.2,0.4,0.4,0.6,0.7l0.7,0.6
				c1.8,1.7,3.8,3.1,6,4.3c2.2,1.2,4.5,2,6.9,2.6c1.2,0.3,2.4,0.5,3.6,0.6c1.2,0.1,2.5,0.2,3.7,0.2c2.5,0,5-0.2,7.5-0.6
				c5-0.8,9.8-2.4,14.3-4.6L742,772l5.3-3.4l-0.1,0.1c2.4-1.8,4.6-3.7,6.5-5.9c1.9-2.2,3.6-4.6,4.7-7.1c0.6-1.3,0.9-2.6,1.1-4
				c0.1-0.3,0-0.7,0-1l0-0.5l-0.1-0.5c0-0.3-0.1-0.7-0.1-1l-0.2-1c-0.6-2.8-1.7-5.6-2.8-8.4c-2.3-5.5-5.2-10.8-8.2-16.1
				c-2.9-5.3-6-10.5-8.2-16.3c-0.1-0.3,0-0.6,0.3-0.7C740.5,706.2,740.7,706.3,740.9,706.4z"/>
		</g>
		<g>
			<path class="st13" d="M731,770.2c0,0,9.5,25.5,10.1,45.1c0,0,14.8,4.1,8.5,12.4c-6.9,9-29.7,15.3-36.2,8.1
				c-6.6-7.4-11.8-49.3-20.6-77.6"/>
		</g>
		<g class="st14">
			<path class="st15" d="M753.5,753.4L726,766.8c-1.5,0.7-3.1,0.8-4.6,0.4c-0.8,1.3-2.2,2.9-4.7,3.2c-3.1,0.3-5.5-1.1-5.5-1.1
				s-4.1,7.6-7.4,9.5c5,22.4,8.9,44.5,13.5,49.7c5.9,6.6,25.1,2,33.8-5.6c0.3,1.4-0.1,3-1.5,4.8c-6.9,9-29.7,15.3-36.2,8.1
				c-6.6-7.4-11.8-49.3-20.6-77.6l6.5,2l0,0c3.3-0.9,9.2-2.5,14.3-3.8l-3.6-7.3c-1.4-2.9-0.5-6.2,1.9-8.1c0.3-0.3,0.7-0.5,1.1-0.7
				l27.5-13.4c3.3-1.6,7.2-0.2,8.8,3l5.7,11.6l1.5,3C758.1,747.9,756.7,751.8,753.5,753.4z"/>
		</g>
		<g>
			<path class="st16" d="M731.5,770c1.1,1.7,1.9,3.5,2.7,5.3c0.8,1.8,1.4,3.6,2,5.5c1.2,3.7,2.2,7.5,3,11.3c0.4,1.9,0.9,3.8,1.2,5.7
				c0.4,1.9,0.7,3.8,1.1,5.8c0.6,3.9,1,7.8,1.2,11.7l-1.1-1.4c0.8,0.2,1.5,0.5,2.2,0.8c0.7,0.3,1.4,0.6,2.1,0.9
				c1.4,0.7,2.7,1.5,4,2.6c0.6,0.5,1.2,1.2,1.7,1.9c0.5,0.7,0.9,1.6,1.1,2.5c0.2,0.9,0.1,1.9-0.1,2.8c-0.2,0.9-0.6,1.7-1.1,2.4
				c-1.8,2.8-4.3,4.7-6.9,6.3c-1.3,0.8-2.6,1.5-4,2.2c-1.4,0.6-2.7,1.2-4.1,1.7c-2.8,1-5.7,1.8-8.7,2.2c-3,0.4-6,0.6-9.2,0
				c-1.5-0.3-3.1-0.8-4.6-1.8c-0.4-0.2-0.7-0.5-1-0.8l-0.5-0.5l-0.2-0.2l-0.2-0.3c-0.6-0.7-1-1.4-1.4-2.1c-1.5-2.8-2.3-5.6-3.2-8.4
				c-1.7-5.6-3-11.3-4.2-16.9c-1.3-5.7-2.4-11.3-3.7-17c-1.2-5.6-2.5-11.3-3.8-16.9c-0.7-2.8-1.6-5.5-2.2-8.3
				c-0.7-2.8-1.3-5.6-1.3-8.6v0c0-0.3,0.2-0.5,0.5-0.5c0.2,0,0.4,0.1,0.5,0.2c1.7,2.5,2.7,5.3,3.5,8.1c0.8,2.8,1.4,5.7,2.1,8.5
				c1.4,5.6,2.6,11.3,3.8,17c1.2,5.7,2.4,11.3,3.6,17c1.3,5.6,2.5,11.3,4.2,16.7c0.8,2.7,1.7,5.4,3,7.8c0.3,0.6,0.7,1.1,1,1.6
				l0.1,0.2l0.2,0.1l0.3,0.3c0.2,0.2,0.5,0.4,0.7,0.5c1,0.6,2.2,1.1,3.5,1.3c2.6,0.5,5.4,0.4,8.1,0c2.7-0.4,5.5-1.1,8.1-2.1
				c1.3-0.5,2.6-1,3.9-1.6c1.3-0.6,2.5-1.3,3.6-2c1.2-0.7,2.3-1.5,3.3-2.4c1-0.9,1.9-1.9,2.6-2.9c0.3-0.5,0.6-1,0.7-1.5
				c0.1-0.5,0.1-1,0.1-1.5c-0.2-0.9-0.9-1.9-1.8-2.7c-0.9-0.8-2.1-1.5-3.3-2.1c-0.6-0.3-1.2-0.6-1.9-0.8c-0.6-0.2-1.3-0.5-1.9-0.7
				l-1.1-0.3l0-1.1c-0.1-3.8-0.6-7.6-1.1-11.3c-0.6-3.8-1.4-7.5-2.3-11.2c-1-3.7-2-7.4-3-11.1c-1-3.7-2-7.4-2.6-11.3l0,0
				c0-0.3,0.2-0.6,0.4-0.6C731.2,769.7,731.4,769.8,731.5,770z"/>
		</g>
		<g>
			<path class="st16" d="M725.3,803.8c-10.4,3-20.1,2.3-20.7,2.2c-0.6-0.1-1.1-0.6-1.1-1.3c0.1-0.6,0.6-1.1,1.3-1.1
				c0.2,0,20.3,1.5,32.9-8.6c0.5-0.4,1.3-0.3,1.7,0.2s0.3,1.3-0.2,1.7C735,800.3,730.1,802.4,725.3,803.8z"/>
		</g>
		<g>
			<circle class="st13" cx="753.4" cy="730.1" r="5.8"/>
		</g>
		<g class="st14">
			<path class="st15" d="M758.8,727.9c1.2,3-0.3,6.4-3.3,7.6c-3,1.2-6.4-0.3-7.6-3.3c-0.3-0.8-0.5-1.7-0.4-2.5c1.6,1.5,4,2,6.1,1.2
				c2.2-0.9,3.5-2.9,3.7-5.1C758,726.4,758.5,727.1,758.8,727.9z"/>
		</g>
		<g>
			<path class="st16" d="M755.3,736.8c-3.4,1-7.1-0.8-8.5-4.2c-1.4-3.6,0.3-7.7,4-9.1c3.6-1.4,7.7,0.3,9.1,4
				c0.7,1.7,0.7,3.7-0.1,5.4c-0.7,1.7-2.1,3.1-3.9,3.7C755.8,736.7,755.5,736.7,755.3,736.8z M752.1,725.6c-0.1,0-0.3,0.1-0.4,0.1
				c-2.4,0.9-3.6,3.7-2.6,6.1c0.9,2.4,3.7,3.6,6.1,2.6c1.2-0.5,2.1-1.3,2.6-2.5c0.5-1.1,0.5-2.4,0.1-3.6
				C756.8,726.1,754.4,724.9,752.1,725.6z"/>
		</g>
		<g>
			<g class="st14">
				<path class="st15" d="M755.7,734.9c-3.5-5.6-6-11.2-7.9-16.3c1.3,2.8,2.9,5.7,4.7,8.7c2.1,3.5,3.9,7.2,5.2,11.2
					C757.1,737.2,756.4,736,755.7,734.9z"/>
			</g>
			<g>
				<path class="st13" d="M755,747.5l-27.5,13.4c-3.3,1.6-7.2,0.2-8.8-3l-7.1-14.6c-1.4-2.9-0.5-6.2,1.9-8.1
					c0.3-0.3,0.7-0.5,1.1-0.7l27.5-13.4c3.3-1.6,7.2-0.2,8.8,3l5.7,11.6l1.5,3C759.6,741.9,758.2,745.9,755,747.5z"/>
			</g>
			<g class="st14">
				<path class="st15" d="M755,747.5l-27.5,13.4c-3.3,1.6-7.2,0.2-8.8-3l-7.1-14.6c-1.4-2.9-0.5-6.2,1.9-8.1
					c2.1,0.3,3.4,0.5,3.4,0.5c7.1,11.1,13.3,15.3,28,8.4c6.3-3,9.8-5.9,11.7-8.4l1.5,3C759.6,741.9,758.2,745.9,755,747.5z"/>
			</g>
			<g>
				<path class="st16" d="M726.8,762.7c-1.6,0.4-3.2,0.4-4.8-0.1c-2-0.7-3.7-2.1-4.6-4l-7.1-14.6c-1.9-4-0.3-8.8,3.7-10.7l27.5-13.4
					c1.9-0.9,4.1-1.1,6.1-0.4c2,0.7,3.7,2.1,4.6,4l7.1,14.6c0.9,1.9,1.1,4.1,0.4,6.1c-0.7,2-2.1,3.7-4,4.6l-27.5,13.4
					C727.7,762.4,727.2,762.5,726.8,762.7z M743.5,722c-0.3,0.1-0.6,0.2-0.8,0.3l-27.5,13.4c-2.6,1.3-3.6,4.4-2.4,6.9l7.1,14.6
					c1.3,2.6,4.4,3.6,6.9,2.4l0,0l27.5-13.4c1.2-0.6,2.2-1.7,2.6-3c0.5-1.3,0.4-2.7-0.2-3.9l-7.1-14.6c-0.6-1.2-1.7-2.2-3-2.6
					C745.6,721.7,744.5,721.7,743.5,722z"/>
			</g>
			<g>
				<path class="st13" d="M756,746.8c-0.3,0.2-0.7,0.5-1.1,0.6l-27.5,13.4c-2.4,1.2-5.1,0.7-7.1-0.9c-0.7-0.6-1.3-1.3-1.7-2.2
					l-3.2-6.5l-1-2.1l-2.9-6c-1.6-3.3-0.2-7.2,3-8.8l5.9-2.9c-2.5,1.9-3.4,5.3-2,8.2l3.9,7.9l3.3,6.7c1.6,3.3,5.6,4.6,8.8,3
					L756,746.8z"/>
			</g>
			<g class="st14">
				<path class="st15" d="M756,746.8c-0.3,0.2-0.7,0.5-1.1,0.6l-27.5,13.4c-3.3,1.6-7.2,0.2-8.8-3l-4.2-8.6c1.4,1.2,3.6,2.5,5.7,1.7
					c1.1-0.4,1.8-1.7,2.2-3.3l3.3,6.7c1.6,3.3,5.6,4.6,8.8,3L756,746.8z"/>
			</g>
			<g>
				<path class="st16" d="M726.8,762.7c-1.6,0.4-3.2,0.4-4.8-0.1c-2-0.7-3.7-2.1-4.6-4l-7.1-14.6c-0.9-1.9-1.1-4.1-0.4-6.1
					c0.7-2,2.1-3.7,4-4.6l5.9-2.9l1.5,2.4c-2,1.5-2.6,4.2-1.6,6.4l7.1,14.6c0.6,1.2,1.7,2.2,3,2.6c1.3,0.5,2.7,0.4,3.9-0.2
					l21.6-10.5l1.5,2.4c-0.4,0.3-0.8,0.6-1.3,0.8l-27.5,13.4C727.7,762.4,727.2,762.5,726.8,762.7z M716.7,735l-1.5,0.7
					c-1.2,0.6-2.2,1.7-2.6,3c-0.5,1.3-0.4,2.7,0.2,3.9l7.1,14.6c0.6,1.2,1.7,2.2,3,2.6c1.3,0.5,2.7,0.4,3.9-0.2l1.7-0.8
					c-1.8-0.7-3.3-2.1-4.1-3.9l-7.1-14.6C716.4,738.6,716.3,736.7,716.7,735z"/>
			</g>
			<g>
				<path class="st17" d="M733,741.9c0.3,0.5,1.6,5.3,1.6,5.3s-1.4,0.7-3.1,1.5c-2.1,1-4.9-0.4-6.2-3.1c-1.3-2.7-0.6-5.7,1.5-6.8
					c1.4-0.7,3.1-1.5,3.1-1.5S732.6,741,733,741.9z"/>
			</g>
			<g class="st14">
				<path class="st15" d="M733,741.9c0.3,0.5,1.6,5.3,1.6,5.3s-1.4,0.7-3.1,1.5c-2.1,1-4.9-0.4-6.2-3.1c-1.3-2.7-0.6-5.7,1.5-6.8
					c1.4-0.7,3.1-1.5,3.1-1.5S732.6,741,733,741.9z"/>
			</g>
			<g>
				<path class="st16" d="M731.2,749.7c-2.5,0.7-5.4-0.9-6.8-3.8c-0.7-1.5-0.9-3.1-0.6-4.6c0.3-1.6,1.2-2.8,2.5-3.4l2.2-1
					c1-0.5,2.1-0.2,2.7,0.7c1.5,2,2.4,3.3,2.6,3.9c0.1,0.1,0.2,0.5,1.4,4.4c0.3,1-0.2,2.1-1.2,2.6l-2.1,1
					C731.7,749.6,731.5,749.7,731.2,749.7z M729.4,738.6C729.4,738.6,729.4,738.6,729.4,738.6l-2.2,1.1c-0.8,0.4-1.3,1.1-1.5,2.1
					c-0.2,1.1-0.1,2.3,0.5,3.4c1.1,2.2,3.3,3.4,5,2.6l2.1-1c0.1-0.1,0.2-0.2,0.2-0.4c-0.8-2.7-1.2-3.9-1.3-4.1
					c-0.1-0.2-0.5-0.9-2.4-3.6C729.6,738.6,729.5,738.5,729.4,738.6z"/>
			</g>
			<g>
				
					<ellipse transform="matrix(0.9013 -0.4332 0.4332 0.9013 -249.2616 390.4785)" class="st17" cx="732.2" cy="742.2" rx="4.3" ry="5.5"/>
			</g>
			<g class="st18">
				<path class="st13" d="M736.5,741.5c-1.4-2-3.8-2.9-5.6-2.1c-1.8,0.9-2.6,3.3-1.9,5.7c-0.2-0.3-0.4-0.6-0.6-1
					c-1.3-2.7-0.6-5.7,1.5-6.8c2.1-1,4.9,0.4,6.2,3.1C736.3,740.7,736.4,741.1,736.5,741.5z"/>
			</g>
			<g class="st14">
				<path class="st15" d="M734.6,747.1c-2.1,1-4.9-0.3-6.2-3.1c-0.3-0.7-0.5-1.4-0.6-2.1c1.4,1.8,3.6,2.6,5.4,1.7
					c1.6-0.8,2.4-2.7,2.1-4.7c0.3,0.4,0.6,0.8,0.8,1.3C737.4,743.1,736.7,746.1,734.6,747.1z"/>
			</g>
			<g>
				<path class="st16" d="M734.3,748.3c-1.1,0.3-2.4,0.2-3.5-0.4c-1.4-0.7-2.5-1.9-3.2-3.4c-1.5-3.2-0.7-6.8,1.9-8
					c2.6-1.2,5.9,0.3,7.5,3.5c0.7,1.5,0.9,3.1,0.6,4.6c-0.3,1.6-1.2,2.8-2.5,3.4C734.8,748.1,734.6,748.2,734.3,748.3z M730.7,738
					c-0.1,0-0.3,0.1-0.4,0.1c-1.7,0.8-2.1,3.3-1,5.5c0.5,1.1,1.4,2,2.4,2.5c0.9,0.4,1.8,0.5,2.6,0.1c0.8-0.4,1.3-1.1,1.5-2.1
					c0.2-1.1,0.1-2.3-0.5-3.4C734.2,738.7,732.3,737.5,730.7,738z"/>
			</g>
			<g>
				<path class="st16" d="M746.7,752.7c-0.5,0.2-1.1-0.1-1.4-0.6l-4.1-9c-0.5-1.1-0.4-2.4,0.2-3.5l1.8-2.9c0.3-0.4,0.3-0.9,0.1-1.3
					l-5.8-12c-0.3-0.6,0-1.3,0.5-1.6c0.6-0.3,1.3,0,1.6,0.5l5.8,12c0.6,1.2,0.5,2.5-0.2,3.6l-1.8,2.9c-0.2,0.4-0.3,0.9-0.1,1.3
					l4.1,9c0.3,0.6,0,1.3-0.6,1.5C746.8,752.6,746.8,752.7,746.7,752.7z"/>
			</g>
		</g>
		<g>
			<path class="st13" d="M687.1,753.4c0,0-1.7,3.2-0.5,6.4c1.4,3.7,4.4,4.3,4.4,4.3s12.3,0.9,27.1-9.5c0,0,2.2-8.1-4.6-9.2
				C713.5,745.4,697.3,755,687.1,753.4z"/>
		</g>
		<g class="st14">
			<path class="st15" d="M686.6,759.8c1.4,3.7,4.4,4.3,4.4,4.3s12.3,0.9,27.1-9.5c0,0,0.7-2.7,0.1-5.1c0,0.1-0.1,0.2-0.1,0.2
				c-10.8,7.6-20.3,9.1-24.6,9.4c-3,0.2-5.8-1.4-6.8-4.1c0,0,0-0.1,0-0.1c0-0.1,0-0.1-0.1-0.2C686.2,755.9,685.8,757.8,686.6,759.8z
				"/>
		</g>
		<g>
			<path class="st15" d="M702.2,764c-6.6,1.9-11,1.6-11.4,1.6l-0.2,0c-0.2,0-3.8-0.7-5.6-5.2c-1.5-3.9,0.5-7.6,0.6-7.7l0.5-1
				l1.1,0.2c9.6,1.5,25.2-7.7,25.4-7.8l0.5-0.3l0.6,0.1c2.2,0.4,3.9,1.4,5,3.1c2.1,3.3,0.9,7.9,0.8,8.1l-0.1,0.5l-0.5,0.3
				C712.7,760.2,706.9,762.6,702.2,764z M691.2,762.5c1.2,0,12.3,0.2,25.5-8.9c0.2-1.2,0.4-3.5-0.6-5.1c-0.5-0.8-1.3-1.3-2.3-1.6
				c-2.8,1.6-16,8.8-25.7,8c-0.3,1-0.6,2.6,0,4.2C689,761.8,690.8,762.4,691.2,762.5z"/>
		</g>
		<g>
			<path class="st16" d="M722.8,822.8c1-1.3,2.3-2.5,3.7-3.6c1.4-1.1,2.8-2,4.4-2.8c1.6-0.8,3.2-1.4,5-1.9c0.9-0.3,1.7-0.4,2.6-0.5
				c0.4-0.1,0.9-0.1,1.3-0.2l1.4-0.1c0.9-0.1,1.6,0.6,1.7,1.4c0.1,0.9-0.6,1.6-1.4,1.7c-0.1,0-0.2,0-0.2,0l-0.1,0l-1.2-0.1
				c-0.4,0-0.8-0.1-1.2,0c-0.8,0-1.6,0-2.4,0.1c-1.6,0.1-3.2,0.5-4.8,1c-1.6,0.5-3.1,1.2-4.6,2C725.4,820.7,724.1,821.7,722.8,822.8
				z"/>
		</g>
		<g>
			<path class="st13" d="M718.8,764.5c-2.9,3.6-7,0.6-8.9,1.5c-1.7,0.7-2.5,5.8-5.9,8.4c-0.5,0.4-1,0.7-1.6,0.9
				c-4.8,2-21.9,2.4-29.9-7.6c-8.6-10.7-1.2-32.1,4.6-45.2c1.1-2.4,2.1-4.5,3-6.2c1.4-2.9,2.4-4.6,2.4-4.6l5.9,13.9l5.2,12.1
				c0,0-1.8,3.3-0.9,6.5c0.6,2.1,3.6,3.2,3.6,3.2s5.1-4.5,7.3-5.1c2.2-0.5,8.6-1,11,1.9C717,747.2,721.7,760.9,718.8,764.5z"/>
		</g>
		<g class="st14">
			<path class="st15" d="M718.8,764.5c-2.9,3.6-7,0.6-8.9,1.5c-1.9,0.8-2.7,7.3-7.5,9.4c-4.8,2-21.9,2.4-29.9-7.6
				c-2.1-2.6-3.2-5.8-3.7-9.3c0.5,1,1.1,2,1.8,2.9c8,10,25.1,9.6,29.9,7.6c4.8-2,5.6-8.6,7.5-9.4c1.9-0.8,6,2.1,8.9-1.5
				c1.2-1.5,1.1-4.6,0.4-8.1C719.2,755.1,720.7,762.1,718.8,764.5z"/>
		</g>
		<g>
			<path class="st16" d="M682.9,712c-0.9,3.2-2.1,6.1-3.4,9.1c-1.3,3-2.5,5.9-3.7,8.9c-2.4,5.9-4.3,12.1-5.2,18.3
				c-0.4,3.1-0.6,6.3-0.3,9.3c0.2,1.5,0.5,3,0.9,4.4c0.5,1.4,1.1,2.8,1.9,4c1.7,2.4,4.1,4.3,6.8,5.7c2.7,1.4,5.7,2.3,8.8,2.7
				c3.1,0.5,6.2,0.6,9.3,0.2c0.8-0.1,1.5-0.2,2.2-0.4c0.7-0.2,1.4-0.4,1.9-0.6c1.1-0.6,2.1-1.6,2.9-2.8c0.4-0.6,0.8-1.3,1.1-2
				c0.4-0.7,0.7-1.4,1.1-2.2c0.2-0.4,0.5-0.8,0.9-1.3c0.2-0.2,0.4-0.5,0.8-0.7c0.4-0.3,0.8-0.3,1.1-0.4c0.3,0,0.7-0.1,0.9-0.1l0.4,0
				l0.4,0c0.5,0.1,0.9,0.1,1.3,0.2c0.8,0.1,1.5,0.2,2.1,0.2c0.6,0,1.1-0.1,1.6-0.4c0.1,0,0.1-0.1,0.2-0.1l0.2-0.1
				c0.1-0.1,0.2-0.2,0.3-0.3l0.3-0.3c0-0.1,0.1-0.1,0.2-0.2c0.2-0.4,0.4-1,0.4-1.7c0.1-1.4-0.1-2.9-0.4-4.4c-0.3-1.5-0.7-3-1.2-4.5
				c-0.5-1.5-1-3-1.6-4.4c-0.3-0.7-0.6-1.4-1-2c-0.2-0.3-0.4-0.6-0.5-0.8c-0.2-0.2-0.3-0.4-0.6-0.5c-0.9-0.7-2.3-1-3.8-1.2
				c-1.5-0.1-3-0.1-4.5,0.2c-0.4,0.1-0.7,0.1-0.9,0.2c-0.1,0.1-0.3,0.1-0.4,0.2l-0.5,0.2c-0.6,0.4-1.3,0.8-1.9,1.3
				c-1.2,0.9-2.5,2-3.6,3l-0.7,0.7l-0.9-0.3c-0.3-0.1-0.6-0.2-0.8-0.3c-0.3-0.1-0.5-0.3-0.8-0.4c-0.5-0.3-1-0.6-1.4-1.1
				c-0.5-0.4-0.9-1-1.2-1.6c-0.1-0.2-0.1-0.3-0.2-0.5l-0.1-0.3l0-0.2c-0.1-0.3-0.1-0.6-0.1-0.9c-0.1-1.2,0.1-2.3,0.4-3.3
				c0.4-1,0.9-1.9,1.7-2.7c0.2-0.2,0.5-0.2,0.8,0c0.1,0.1,0.2,0.3,0.2,0.4l0,0.1c-0.1,0.9-0.2,1.9-0.2,2.7c0,0.9,0.1,1.7,0.2,2.4
				c0,0.2,0.1,0.4,0.1,0.5l0,0.1l0,0.1c0,0,0,0.1,0.1,0.2c0.1,0.2,0.3,0.4,0.6,0.7c0.2,0.2,0.6,0.4,0.9,0.7c0.2,0.1,0.3,0.2,0.5,0.3
				c0.2,0.1,0.4,0.2,0.5,0.2l-1.6,0.3c1.3-1.1,2.6-2.1,3.9-3.1c0.7-0.5,1.4-1,2.2-1.4l0.6-0.3c0.2-0.1,0.5-0.2,0.7-0.3
				c0.6-0.2,1-0.3,1.5-0.4c1.8-0.3,3.5-0.3,5.2-0.2c0.9,0.1,1.8,0.2,2.7,0.5c0.9,0.3,1.8,0.7,2.7,1.3c0.4,0.3,0.8,0.7,1.2,1.1
				c0.3,0.4,0.6,0.8,0.8,1.2c0.4,0.8,0.8,1.5,1.2,2.3c0.7,1.6,1.3,3.1,1.8,4.7c0.5,1.6,0.9,3.2,1.2,4.9c0.3,1.7,0.5,3.4,0.4,5.2
				c-0.1,0.9-0.2,1.9-0.7,3c-0.1,0.3-0.3,0.5-0.5,0.8l-0.5,0.6c-0.2,0.2-0.4,0.4-0.6,0.5l-0.3,0.2c-0.1,0.1-0.2,0.1-0.4,0.2
				c-0.9,0.6-2.1,0.8-3.1,0.8c-1,0-1.9-0.1-2.7-0.3c-0.4-0.1-0.8-0.1-1.1-0.2c-0.4-0.1-0.6,0-0.7,0c0,0-0.1,0,0,0c0,0,0,0-0.1,0.1
				c-0.1,0.2-0.3,0.4-0.5,0.8c-0.7,1.3-1.4,2.9-2.3,4.4c-1,1.5-2.3,3-4,3.9c-0.4,0.2-0.9,0.4-1.3,0.6c-0.4,0.1-0.9,0.3-1.3,0.4
				c-0.9,0.2-1.7,0.3-2.6,0.4c-1.7,0.2-3.4,0.2-5.1,0.2c-1.7,0-3.4-0.2-5-0.5c-3.3-0.5-6.6-1.5-9.7-3.1c-3.1-1.6-5.9-3.8-7.9-6.7
				c-1-1.5-1.8-3.1-2.3-4.8c-0.5-1.7-0.9-3.4-1.1-5.1c-0.4-3.4-0.1-6.8,0.3-10.1c1-6.6,3-12.9,5.2-19.1c1.1-3.1,2.4-6.1,3.9-9
				c1.5-2.9,3.1-5.8,5.4-8.3c0.2-0.2,0.5-0.2,0.7,0C682.9,711.6,682.9,711.8,682.9,712L682.9,712z"/>
		</g>
		<g>
			<g class="st14">
				<path class="st15" d="M740.9,698.4c-0.3,0.6-0.6,1.2-1,1.9c-0.4,0.8-0.9,1.5-1.3,2.3c-0.1,0.2-0.2,0.4-0.4,0.5
					c-1.3,2.1-2.8,4-4.4,5.8c-0.3,0.3-0.5,0.6-0.8,0.9c-1.2,1.4-2.6,2.6-3.9,3.8c-2,1.8-4.1,3.3-6.4,4.7c-0.8,0.5-1.6,1-2.5,1.5
					c-9.7,5.3-20.9,7.4-31.9,5.8c-2.5-0.4-4.9-0.9-7.3-1.6c-1.3-0.4-2.7-0.9-4-1.4c1.1-2.4,2.1-4.5,3-6.2
					c-0.7-6.1-1.3-12.6-1.5-19.4l42.2-20.7c4.2,6.2,8.1,12.1,11.7,17.7C735.2,695.5,738.1,697,740.9,698.4z"/>
			</g>
			<g>
				<path class="st13" d="M743.4,662.3c0.9,8.2-0.2,16.7-3.6,24.6c-0.7,1.6-1.5,3.2-2.3,4.8c-0.4,0.8-0.9,1.5-1.3,2.3
					c-1.4,2.3-3,4.4-4.7,6.4c-1.5,1.7-3.1,3.3-4.7,4.7c-2,1.8-4.1,3.3-6.4,4.7c-0.8,0.5-1.6,1-2.5,1.5c-15.3,8.5-34.6,8.7-50.4-0.9
					c-23.3-14.2-30.4-44.6-15.8-67.8c2.8-4.5,6.2-8.4,10.1-11.6c0.4-0.4,0.9-0.8,1.4-1.1c1.2-1,2.5-1.9,3.8-2.7c3-2,6.3-3.6,9.6-4.9
					c3.3-1.3,6.8-2.2,10.4-2.7c1.1-0.2,2.3-0.3,3.4-0.4c1.7-0.1,3.4-0.2,5.1-0.2c8.5,0.2,17.1,2.5,24.9,7.2
					C733.7,634.4,741.7,647.9,743.4,662.3z"/>
				<path class="st15" d="M707.3,715.9c-13.4,3.8-27.9,2.1-40-5.3c-11.3-6.9-19.2-17.7-22.2-30.5c-3-12.9-0.8-26.2,6.3-37.6
					c2.8-4.4,6.2-8.3,10.1-11.7c0.4-0.4,0.9-0.7,1.4-1.1c1.2-1,2.5-1.9,3.8-2.8c3-2,6.3-3.6,9.7-4.9c3.4-1.3,6.8-2.2,10.4-2.7
					c1.1-0.2,2.3-0.3,3.4-0.4c1.7-0.1,3.5-0.2,5.1-0.2c8.8,0.2,17.5,2.7,25,7.2c13,7.9,21.5,21.1,23.2,36.2c1,8.4-0.3,16.9-3.6,24.7
					c-0.7,1.6-1.5,3.3-2.4,4.8c-0.4,0.7-0.8,1.5-1.4,2.3c-1.4,2.3-3,4.4-4.7,6.4c-1.5,1.7-3,3.3-4.7,4.8c-2,1.7-4.1,3.3-6.4,4.8
					c-0.8,0.5-1.6,1-2.5,1.5C714.5,713.4,710.9,714.8,707.3,715.9z M680.5,621.1c-1.3,0.4-2.7,0.8-4,1.3c-3.4,1.3-6.6,2.9-9.6,4.8
					c-1.3,0.8-2.6,1.8-3.8,2.7c-0.5,0.4-0.9,0.8-1.4,1.1c-3.9,3.3-7.3,7.2-10,11.6c-7.1,11.3-9.3,24.5-6.3,37.3
					c3,12.7,10.8,23.5,22,30.3c15.2,9.3,34.5,9.6,50.2,0.9c0.8-0.5,1.7-0.9,2.5-1.5c2.2-1.4,4.4-3,6.3-4.7c1.7-1.5,3.3-3.1,4.7-4.7
					c1.7-2,3.3-4.1,4.7-6.3c0.5-0.8,1-1.6,1.3-2.3c0.9-1.5,1.6-3.1,2.3-4.8c3.3-7.7,4.5-16.2,3.6-24.6c-1.7-15-10.1-28.1-23-36
					c-7.5-4.6-16.1-7-24.8-7.2c-1.7,0-3.4,0-5.1,0.2c-1.1,0.1-2.2,0.2-3.4,0.4C684.7,620,682.6,620.5,680.5,621.1z"/>
			</g>
			<g class="st14">
				<path class="st15" d="M667.4,710.5c15.8,9.6,35.1,9.4,50.4,0.9c0.8-0.5,1.7-0.9,2.5-1.5c2.2-1.4,4.4-3,6.4-4.7
					c1.7-1.5,3.2-3,4.7-4.7c1.7-2,3.3-4.1,4.7-6.4c0.5-0.8,0.9-1.5,1.3-2.3c0.9-1.6,1.7-3.2,2.3-4.8c3.4-8,4.5-16.4,3.6-24.6
					c-0.5-4.5-1.6-8.9-3.4-13.1c0.7,7.8-0.5,15.9-3.7,23.5c-0.7,1.6-1.5,3.2-2.3,4.8c-0.4,0.8-0.9,1.5-1.3,2.3
					c-1.4,2.3-3,4.4-4.7,6.4c-1.5,1.7-3.1,3.3-4.7,4.7c-2,1.8-4.1,3.3-6.4,4.7c-0.8,0.5-1.6,1-2.5,1.5c-15.3,8.5-34.6,8.7-50.4-0.9
					c-9.2-5.6-15.9-13.8-19.7-23C645.5,688.1,653.6,702.1,667.4,710.5z"/>
			</g>
			<g>
				<path class="st15" d="M707.6,716.9c-13.7,3.9-28.5,2.1-40.8-5.4c-11.5-7-19.6-18.1-22.6-31.1c-3.1-13.2-0.8-26.8,6.4-38.4
					c2.8-4.5,6.3-8.5,10.3-11.9c0.4-0.4,0.9-0.8,1.4-1.2c1.3-1,2.6-1.9,3.9-2.8c3.1-2,6.4-3.7,9.9-5c3.4-1.3,7-2.2,10.6-2.8
					c1.2-0.2,2.3-0.3,3.5-0.4c1.8-0.1,3.5-0.2,5.2-0.2c9,0.2,17.8,2.7,25.5,7.4c13.3,8.1,21.9,21.6,23.7,37l0,0
					c1,8.6-0.3,17.3-3.7,25.2c-0.7,1.7-1.5,3.3-2.4,4.9c-0.4,0.7-0.8,1.5-1.4,2.3c-1.4,2.3-3.1,4.5-4.8,6.5
					c-1.5,1.7-3.1,3.3-4.8,4.8c-2,1.8-4.2,3.4-6.5,4.9c-0.8,0.5-1.7,1-2.5,1.5C714.9,714.3,711.3,715.8,707.6,716.9z M680.8,622.1
					c-1.3,0.4-2.6,0.8-3.9,1.3c-3.3,1.2-6.5,2.8-9.4,4.7c-1.3,0.8-2.5,1.7-3.7,2.7c-0.5,0.4-0.9,0.7-1.3,1.1
					c-3.8,3.2-7.1,7.1-9.8,11.4c-6.9,11-9.1,24-6.1,36.5c2.9,12.4,10.6,23,21.6,29.6c14.9,9.1,33.7,9.4,49.2,0.9
					c0.8-0.4,1.6-0.9,2.4-1.4c2.2-1.4,4.3-2.9,6.2-4.6c1.6-1.4,3.2-3,4.6-4.6c1.7-1.9,3.2-4,4.6-6.2c0.5-0.8,0.9-1.5,1.3-2.2
					c0.8-1.5,1.6-3.1,2.3-4.7c3.2-7.6,4.4-15.9,3.5-24c-1.7-14.7-9.9-27.5-22.5-35.2c-7.3-4.5-15.7-6.9-24.3-7c-1.6,0-3.3,0-5,0.2
					c-1.1,0.1-2.2,0.2-3.3,0.4C684.9,621.1,682.9,621.5,680.8,622.1z M743.4,662.3L743.4,662.3L743.4,662.3z"/>
			</g>
			<g>
				<path class="st16" d="M707.7,717.2c-13.8,3.9-28.7,2.1-41.1-5.4c-11.6-7.1-19.7-18.2-22.8-31.4c-3.1-13.3-0.8-27,6.5-38.6
					c2.9-4.5,6.3-8.6,10.4-12c0.4-0.4,0.9-0.8,1.4-1.2c1.3-1,2.6-2,3.9-2.8c3.1-2,6.4-3.7,9.9-5c3.4-1.3,7-2.2,10.7-2.8
					c1.2-0.2,2.3-0.3,3.5-0.4c1.8-0.1,3.6-0.2,5.3-0.2c9.1,0.2,18,2.7,25.7,7.4c13.4,8.1,22.1,21.7,23.8,37.3l0,0
					c1,8.6-0.3,17.4-3.7,25.4c-0.7,1.7-1.5,3.4-2.4,4.9c-0.4,0.7-0.9,1.5-1.4,2.3c-1.5,2.3-3.1,4.5-4.9,6.6
					c-1.5,1.7-3.1,3.4-4.9,4.9c-2,1.8-4.2,3.4-6.6,4.9c-0.8,0.5-1.7,1-2.5,1.5C715.1,714.6,711.4,716.1,707.7,717.2z M680.9,622.4
					c-1.3,0.4-2.6,0.8-3.9,1.3c-3.3,1.2-6.4,2.8-9.3,4.7c-1.3,0.8-2.5,1.7-3.7,2.7c-0.5,0.4-0.9,0.7-1.3,1.1
					c-3.8,3.2-7.1,7-9.8,11.3c-6.9,10.9-9,23.8-6.1,36.3c2.9,12.3,10.5,22.8,21.4,29.4c14.8,9,33.5,9.3,48.8,0.9
					c0.8-0.4,1.6-0.9,2.4-1.4c2.2-1.4,4.3-2.9,6.2-4.6c1.6-1.4,3.2-3,4.6-4.6c1.7-1.9,3.2-4,4.6-6.2c0.5-0.8,0.9-1.5,1.3-2.2
					c0.8-1.5,1.6-3.1,2.3-4.7c3.2-7.5,4.4-15.8,3.5-23.9c-1.7-14.6-9.8-27.3-22.4-35c-7.3-4.4-15.6-6.8-24.1-7c-1.6,0-3.3,0-5,0.2
					c-1.1,0.1-2.2,0.2-3.3,0.4C685,621.4,682.9,621.9,680.9,622.4z M743.4,662.3L743.4,662.3L743.4,662.3z"/>
			</g>
			<g>
				<path class="st16" d="M743.2,675c-12.3,33.2-53.2,44.3-75.1,17.1c-14.9-18.5-7.9-47.4,11.1-60.6c13.8-9.6,31.5-13,52.2,4
					c0,0,8,9,9.9,17.3c1.9,8.3,2.3,16.8,2.3,16.8L743.2,675z"/>
			</g>
			<g>
				<path class="st19" d="M668.1,692.1c21.8,27.2,62.7,16.1,75.1-17.1l0.1-1.1c-23.1,23.1-60.4,26-83-1.1
					C661,679.7,663.5,686.4,668.1,692.1z"/>
			</g>
			<g>
				<path class="st16" d="M712.5,712.1c-5.9,1.7-12.1,2.3-18.1,1.7c-12.4-1.2-23.3-7.3-31.5-17.5c-7.5-9.4-10.7-21.7-8.8-34.6
					c2.1-14.3,10.2-27.6,21.6-35.6c6.4-4.4,12.9-7.3,19.4-8.5l0.1,0l0.1,0c9,0.2,17.9,2.7,25.6,7.4c13.3,8.1,22,21.7,23.8,37.2l0,0
					c1,8.6-0.3,17.4-3.7,25.3c-0.7,1.7-1.5,3.3-2.4,4.9c-0.4,0.7-0.9,1.5-1.4,2.3c-1.5,2.3-3.1,4.5-4.9,6.6l-0.2,0.2
					C726.4,706.5,719.6,710,712.5,712.1z M692.1,621.2c-4.9,1.4-9.9,3.8-14.8,7.2c-10.8,7.5-18.5,20.1-20.4,33.7
					c-1.8,12.1,1.2,23.6,8.2,32.4c7.7,9.6,18,15.3,29.6,16.5c12.4,1.2,25.4-3,35.7-11.6c1.7-1.9,3.2-4,4.5-6.1
					c0.5-0.8,0.9-1.5,1.3-2.2c0.8-1.5,1.6-3.1,2.3-4.7c3.2-7.5,4.4-15.8,3.5-23.9l0,0c-1.7-14.6-9.8-27.4-22.4-35.1
					c-7.2-4.4-15.6-6.8-24.1-7C694.4,620.6,693.2,620.9,692.1,621.2z M743.4,662.3L743.4,662.3L743.4,662.3z"/>
			</g>
			<g>
				<path class="st13" d="M648.7,703c5.1,8.3,14.4,12.1,20.6,8.7s7.2-13,2.1-21.2c0-0.1-0.1-0.1-0.1-0.2c-5.1-8.2-14.3-12-20.5-8.5
					c-4.9,2.7-6.5,9-4.7,15.5C646.7,699.2,647.6,701.2,648.7,703z"/>
			</g>
			<g class="st14">
				<path class="st15" d="M648.7,703c5.1,8.3,14.4,12.1,20.6,8.7s7.2-13,2.1-21.2c0-0.1-0.1-0.1-0.1-0.2c-0.2,1.2-0.7,2.7-2.4,3.2
					c-2.9,0.9-10.7-1.9-10.7-1.9s-5.3,2.4-12.1,5.7C646.7,699.2,647.6,701.2,648.7,703z"/>
			</g>
			<g>
				<path class="st16" d="M667.8,714c-6.8,1.9-15.4-2.2-20.4-10.2l0,0c-3.2-5.2-4.3-10.9-3-15.8c0.9-3.4,2.9-6.1,5.7-7.6
					c7-3.9,17.2,0.3,22.7,9.2c3.2,5.2,4.3,10.9,3,15.8c-0.9,3.4-2.9,6.1-5.7,7.6C669.4,713.5,668.6,713.8,667.8,714z M653.4,682.4
					c-0.6,0.2-1.2,0.4-1.8,0.7c-2.1,1.1-3.5,3.1-4.2,5.7c-1,4-0.1,9,2.6,13.4l0,0c4.2,6.8,11.4,10.4,16.8,8.9
					c0.6-0.2,1.2-0.4,1.8-0.7c2.1-1.1,3.5-3.1,4.2-5.7c1-4,0.1-9-2.6-13.4C666,684.5,658.8,680.9,653.4,682.4z"/>
			</g>
			<g>
				
					<ellipse transform="matrix(0.7959 -0.6054 0.6054 0.7959 -289.7471 540.8004)" class="st13" cx="657.3" cy="700.2" rx="10.6" ry="14"/>
				<path class="st15" d="M663.1,712.8c-0.3,0.1-0.7,0.2-1,0.2c-3.4,0.6-7.2-0.7-10.5-3.4c-5.9-4.9-8.1-13.1-4.9-18.4
					c1.3-2.2,3.3-3.5,5.9-4c3.4-0.6,7.2,0.7,10.5,3.4c5.9,4.9,8.1,13.1,4.9,18.4C666.9,711,665.2,712.2,663.1,712.8z M651.6,687.9
					c-2,0.6-3.6,1.8-4.7,3.6c-3.1,5.1-0.9,13.1,4.9,17.9c3.2,2.7,6.9,3.9,10.3,3.3c2.4-0.4,4.4-1.7,5.7-3.8
					c3.1-5.1,0.9-13.1-4.9-17.9c-3.2-2.7-6.9-3.9-10.3-3.3C652.2,687.7,651.9,687.8,651.6,687.9z"/>
			</g>
			<g class="st14">
				<path class="st15" d="M668.9,700c-0.8-2.5-2.3-4.8-4.2-6.7c1.3,5.9-2,10.7-7.7,10.8c-3.7,0.1-7.6-1.7-10.5-4.6
					c0.1,0.4,0.2,0.8,0.3,1.1c2,6.4,8.6,11.5,14.7,11.3C667.7,711.8,671,706.4,668.9,700z"/>
			</g>
			<g>
				<path class="st16" d="M663.6,714c-5.3,1.5-12.2-2-16.4-8.7c-2.7-4.3-3.7-9.3-2.7-13.2c0.7-2.6,2.1-4.5,4.2-5.6
					c5.5-3,13.5,0.5,18.1,8c2.7,4.3,3.7,9.3,2.7,13.2c-0.7,2.6-2.1,4.5-4.2,5.6C664.8,713.6,664.2,713.9,663.6,714z M651.3,688.5
					c-0.4,0.1-0.8,0.3-1.1,0.5c-1.4,0.8-2.4,2.1-2.9,3.9c-0.8,3.2,0,7.3,2.3,11l0,0c3.7,6,10.3,9.2,14.4,7c1.4-0.8,2.4-2.1,2.9-3.9
					c0.8-3.2,0-7.3-2.3-11C661.1,690.5,655.3,687.4,651.3,688.5z"/>
			</g>
			<g class="st8">
				<path class="st13" d="M675.1,646.1c0,0,18.9-11.4,36-8.1c0,0,0,0,0.1,0c3.6,0.7,6.9,2.4,9.7,4.8c3.6,3.2,5.6,5.9,7.3,8.4
					c5.1,7.5,6,12,6,12c1.7-6.9,1.1-13-3.1-19.3c-0.4-0.6-0.9-1.2-1.3-1.9c-0.1-0.1-0.2-0.3-0.3-0.4c0,0,0,0,0,0
					c-1.1-1.2-2.5-2.7-4.3-4.3c-5.4-4.8-13.9-10.1-23.6-8.6C683.2,631.3,674,645.7,675.1,646.1z"/>
			</g>
			<g class="st8">
				
					<ellipse transform="matrix(0.9489 -0.3156 0.3156 0.9489 -178.1885 247.1024)" class="st13" cx="673.8" cy="673.7" rx="6.7" ry="7.7"/>
			</g>
			<g class="st8">
				
					<ellipse transform="matrix(0.9741 -0.2261 0.2261 0.9741 -137.7242 171.1355)" class="st13" cx="678.3" cy="686.9" rx="2.8" ry="3.2"/>
			</g>
		</g>
		<g>
			<g>
				<path class="st13" d="M759.1,690.2c1.4-2.4-2.4-13.1,1.1-13.8c5.4-1.2,5.7,5.4,6,5.4c0.3,0.1,2.9,0.5,3.9,3.1"/>
			</g>
			<g>
				<path class="st16" d="M757.8,689.4c0,0,0-0.1,0-0.3c0-0.2,0-0.4,0-0.7c0-0.5-0.1-1.1-0.1-1.6c-0.1-1.1-0.3-2.3-0.5-3.6
					c-0.1-1.2-0.3-2.5-0.2-3.9c0-0.7,0.1-1.4,0.4-2.3c0.1-0.4,0.4-0.9,0.8-1.4c0.4-0.5,1-0.8,1.6-1c0.1,0,0.1,0,0.2,0l0.1,0
					c0.1,0,0.2,0,0.3,0c0.2,0,0.4,0,0.6-0.1c0.4,0,0.8,0,1.2,0c0.8,0.1,1.7,0.4,2.4,0.9c0.7,0.5,1.3,1.2,1.7,1.8
					c0.4,0.7,0.7,1.3,0.9,2c0.1,0.3,0.2,0.7,0.3,1l0.2,0.9c0,0,0,0,0,0l0,0l0-0.1l0-0.1c0-0.1-0.1-0.1-0.2-0.2c0,0,0,0-0.1-0.1
					c-0.1-0.1-0.2-0.2-0.3-0.2c-0.1-0.1-0.3-0.1-0.3-0.1l0,0l0.2,0.1c0.2,0,0.4,0.1,0.5,0.2c0.4,0.1,0.7,0.3,1,0.5
					c1.3,0.7,2.4,2.1,2.5,3.6c0,0.4-0.3,0.8-0.7,0.9c-0.3,0-0.5-0.1-0.7-0.3l-0.1-0.1c-0.7-0.8-1.5-1.3-2.3-1.6
					c-0.2-0.1-0.4-0.1-0.7-0.2c-0.1,0-0.2-0.1-0.3-0.1l-0.2,0l0,0c0,0-0.2-0.1-0.4-0.1c-0.1-0.1-0.3-0.1-0.4-0.2
					c-0.1-0.1-0.1-0.1-0.1-0.1c-0.1-0.1-0.1-0.1-0.2-0.2l-0.1-0.1l0-0.1l0-0.1l0-0.1c0-0.1-0.1-0.2-0.1-0.2l-0.2-0.9
					c-0.1-0.3-0.2-0.5-0.2-0.8c-0.3-1-0.9-1.8-1.4-2.1c-0.3-0.2-0.6-0.3-0.9-0.3c-0.2,0-0.4,0-0.6,0c-0.1,0-0.2,0-0.3,0
					c-0.1,0-0.1,0-0.2,0l-0.1,0c0,0-0.1,0,0,0c0,0,0.1,0,0.1-0.1c0,0,0,0.1-0.1,0.2c-0.1,0.3-0.2,0.8-0.2,1.3c0,1,0.1,2.2,0.2,3.4
					c0.1,1.2,0.3,2.4,0.4,3.6c0,0.6,0.1,1.3,0.1,2c0,0.4,0,0.7-0.1,1.1c-0.1,0.4-0.2,0.9-0.5,1.4c-0.4,0.7-1.4,1-2.1,0.6
					C757.6,691.1,757.4,690.1,757.8,689.4z"/>
			</g>
		</g>
		<g>
			<path class="st13" d="M925.9,707.2c-4.1,10.4-21.9,12.3-21.9,12.3l-16.7-57.3l-3.4-11.6c0,0,9.7-2.5,18-1.6
				c4,0.4,7.6,1.7,9.6,4.4C918.5,662.8,929.2,698.7,925.9,707.2z"/>
		</g>
		<g class="st14">
			<path class="st15" d="M921.3,676.5c3.8,12.5,6.4,25.9,4.5,30.7c-4.1,10.4-21.9,12.3-21.9,12.3l-20-68.8c0,0,0.2,0,0.5-0.1
				l15.6,53.7c0,0,17.8-1.9,21.9-12.3C923.1,689.1,922.6,683.3,921.3,676.5z"/>
		</g>
		<g>
			<path class="st16" d="M911.2,719.6c-3.7,1.1-6.7,1.4-7,1.4c-0.9,0.1-1.6-0.5-1.7-1.4c-0.1-0.9,0.5-1.6,1.4-1.7
				c0.2,0,16.9-2,20.6-11.3c3-7.6-7.4-43.1-14.2-52.3c-4.5-6.1-20.2-3.7-25.9-2.2c-0.8,0.2-1.7-0.3-1.9-1.1
				c-0.2-0.8,0.3-1.7,1.1-1.9c0.9-0.2,22.5-5.7,29.1,3.4c3.4,4.7,7.9,15.5,11.3,27.7c1.8,6.3,5.6,21.6,3.3,27.5
				C924.7,714.5,917,717.9,911.2,719.6z"/>
		</g>
		<g>
			<path class="st13" d="M903.4,683.9l-10.4,3.9c-0.9,0.3-1.5,1.3-1.4,2.3c0.4,3.6,1.7,11.9,5.8,13.6c3.4,1.4,7.8-0.2,9.8-3.2
				c2.2-3.4,0.3-11.3-0.9-15.2C905.9,684.1,904.6,683.5,903.4,683.9z"/>
		</g>
		<g class="st14">
			<path class="st15" d="M891.5,690c0.4,3.6,1.7,11.9,5.8,13.6c3.4,1.4,7.8-0.2,9.8-3.2c1.4-2.1,1.2-5.9,0.5-9.4
				c0,1.8-0.3,3.5-1,4.6c-3.9,6.8-9.6,1.8-9.6,1.8s-0.3,1.7-0.8,1.9c-2.2,1-3.8-6.4-4.6-10.2C891.5,689.5,891.5,689.8,891.5,690z"/>
		</g>
		<g>
			<path class="st16" d="M902.8,705.2c-2,0.6-4.2,0.5-6.1-0.2c-4.7-1.9-6.2-10.1-6.6-14.8c-0.2-1.6,0.8-3.2,2.3-3.7l10.4-3.9l0,0
				c0.9-0.3,2-0.3,2.9,0.2c0.9,0.4,1.6,1.2,1.8,2.2c1.7,5.5,3.1,12.8,0.7,16.4C907.1,703.2,905,704.6,902.8,705.2z M903.9,685.2
				C903.9,685.2,903.9,685.2,903.9,685.2L903.9,685.2l-10.5,3.9c-0.3,0.1-0.5,0.4-0.5,0.8c0.7,6.7,2.6,11.5,4.9,12.4
				c2.7,1.1,6.4-0.1,8.1-2.6c1.3-2,0.9-7.2-1.1-14c-0.1-0.3-0.3-0.4-0.4-0.5C904.4,685.2,904.2,685.2,903.9,685.2z M903.4,683.9
				L903.4,683.9L903.4,683.9z"/>
		</g>
		<g>
			<path class="st15" d="M896.3,690.9c0.5,1.3,0.9,2.6,1.4,3.8c0.5,1.2,1,2.4,1.6,3.5c0.6,1,1.4,2,2.3,2.5c0.9,0.6,2,0.8,3.1,0.7
				c0.8,0,1.5,0.6,1.5,1.3c0,0.8-0.6,1.5-1.3,1.5c0,0-0.1,0-0.1,0c-0.8,0-1.6-0.1-2.4-0.4c-0.8-0.2-1.5-0.6-2.2-1.1
				c-1.3-1-2.2-2.2-2.8-3.5c-0.7-1.3-1.1-2.6-1.5-4c-0.4-1.3-0.6-2.7-1-3.9l0,0c-0.1-0.4,0.1-0.8,0.5-0.9
				C895.7,690.3,896.1,690.5,896.3,690.9z"/>
		</g>
		<g>
			<path class="st15" d="M889.3,658.5c-0.9,0.4-1.9,0.8-2.8,1.2c-0.9,0.4-1.9,0.9-2.8,1.4c-0.9,0.5-1.8,1-2.7,1.5
				c-0.9,0.5-1.7,1.1-2.6,1.6l0,0c-0.7,0.4-1.6,0.3-2-0.4c-0.4-0.7-0.3-1.6,0.4-2c0,0,0.1-0.1,0.2-0.1c1-0.5,1.9-0.9,2.9-1.4
				c1-0.4,2-0.8,3-1.2c1-0.4,2-0.7,3-1c1-0.3,2-0.6,3.1-0.9c0.3-0.1,0.7,0.1,0.7,0.4C889.7,658.1,889.6,658.4,889.3,658.5
				L889.3,658.5z"/>
		</g>
		<g class="st14">
			<path class="st15" d="M899.9,649.6c-4,5.3-8.9,9.8-14.6,13.2l-3.4-11.6C881.9,651.2,891.7,648.7,899.9,649.6z"/>
		</g>
		<g class="st14">
			<path class="st15" d="M875.5,720c0.1,0.7,0.1,1.4,0.2,2C875.7,721.3,875.6,720.7,875.5,720z"/>
		</g>
		<g>
			<path class="st13" d="M906.1,691.9c0,0.2,0.1,0.4,0.1,0.6c1.1,4.5,1.6,8.4,1.5,11.6c0,0,0,0,0,0.1c0,0.1,0,0.2,0,0.3
				c-0.1,2.1-0.4,4.1-0.9,6c-1.6,6.3-5.1,11.7-10.1,15.9c-2.2,1.9-8.4,6.7-17.6,9.5c-1.2,0.4-2.5,0.7-3.8,1
				c-5.9,1.3-20.8,2-27.9-5.4c-4.8-4.9-8.8-21.8-12.3-48.2c0-0.4-0.1-0.7-0.2-1.1c-0.1-0.7-0.2-1.3-0.2-2c-0.1-0.6-0.2-1.3-0.2-1.9
				c-1.1-9.2-2.2-19.5-3.3-30.7l45.8-10.6c3.5,4.7,6.8,9.3,9.7,13.9c0.6,1,1.2,1.9,1.8,2.9c1.1,1.8,2.2,3.5,3.2,5.2
				c0.1,0.1,0.1,0.2,0.2,0.3C898.9,671.6,903.7,682.9,906.1,691.9z"/>
		</g>
		<g class="st14">
			<path class="st15" d="M907.7,704.4c-0.5,8.8-4.5,16.5-11,22c-2.5,2.1-10.1,8.1-21.5,10.5c-5.9,1.3-20.8,2-27.9-5.4
				c-2.2-2.3-4.3-7.1-6.2-14.3c1.3,4.2,3.9,9.2,5.4,10.8c7.6,8,20.5,2.2,26.4,0.9c11.4-2.6,19.1-7.9,21.7-9.8
				c6.7-4.9,11-11.5,11.9-18.8c0.4-3.1,0-6.8-1.2-11.2C907.1,695.1,907.9,700.4,907.7,704.4z"/>
		</g>
		<g class="st14">
			<path class="st15" d="M837.4,699.7c1.2,6.8,2.4,12.7,3.7,17.5C839.6,712.8,838.4,706.9,837.4,699.7z"/>
		</g>
		<g class="st14">
			<path class="st15" d="M888.3,690.3c-0.7-2.4-1.6-4.9-2.6-7.5C886.8,685.5,887.7,688,888.3,690.3z"/>
		</g>
		<g>
			<path class="st16" d="M878.9,737.5c-1.1,0.3-2.2,0.6-3.4,0.8l-0.1,0l-6.4,0.8c-4.4,0.2-12.7,0-19-3.6c-1.5-0.8-2.8-1.8-3.8-2.9
				c-6.6-6.8-12-34.5-16.7-84.8c-0.1-0.9,0.6-1.6,1.4-1.7c0.9-0.1,1.6,0.5,1.7,1.4c4.5,48.9,9.8,76.8,15.8,83
				c0.9,0.9,1.9,1.7,3.2,2.4c5.6,3.2,13.2,3.4,17.3,3.2l6.1-0.7c9.6-2.1,16.6-6.7,20.7-10.2c6.3-5.3,10-12.7,10.5-20.9
				c0.7-11.9-8.5-37-30.5-66.3c-0.5-0.7-0.4-1.7,0.3-2.2c0.7-0.5,1.7-0.4,2.2,0.3c19.5,25.9,32,53.4,31.2,68.4
				c-0.5,9-4.7,17.2-11.6,23.1C893.7,730.9,887.4,735.1,878.9,737.5z"/>
		</g>
		<g>
			<path class="st13" d="M878.4,727.9c0,0,5.4,26.7,15.3,43.6c0,0-10.3,11.3-0.6,15c10.6,4,33.3-2.7,35-12.3
				c1.7-9.8-16.1-48.1-23.6-76.7L878.4,727.9z"/>
		</g>
		<g class="st14">
			<path class="st15" d="M906.5,704.8c8.2,27.5,23.1,60.5,21.6,69.5c-1.7,9.6-24.4,16.3-35,12.3c-2.4-0.9-3.6-2.3-4-3.9
				c11.3,2.1,30.6-4.3,32.1-13.1c1.4-8.3-11-36.9-19.5-62.8c-3.9,1.5-8.8,2.7-14.7,3.2l0.7,3c0.8,3.5-1.4,7.1-4.9,7.9l-29.8,6.9
				c-3.5,0.8-7.1-1.4-7.9-4.9l-0.8-3.3l-2.9-12.6c-0.8-3.5,1.4-7.1,4.9-7.9l29.8-6.9c0.4-0.1,0.9-0.2,1.3-0.2c3.1-0.1,5.9,2,6.6,5.1
				l0.6,2.7c3-0.5,14.4-2.7,21.4-7.5c1.1,4.5,1.6,8.4,1.5,11.6c0,0,0,0,0,0.1C907.3,704.4,906.9,704.6,906.5,704.8z"/>
		</g>
		<g>
			<path class="st16" d="M878.9,727.8c1.6,3.6,2.7,7.3,3.8,10.9c1.1,3.7,2.2,7.4,3.3,11c1.2,3.6,2.5,7.2,4,10.8
				c1.5,3.5,3.2,6.9,5,10.2l0.6,1l-0.8,0.8c-0.4,0.5-0.9,1-1.3,1.6c-0.4,0.5-0.8,1.1-1.1,1.7c-0.7,1.1-1.3,2.3-1.7,3.5
				c-0.4,1.2-0.4,2.4-0.1,3.3c0.2,0.5,0.5,0.9,0.8,1.2c0.4,0.4,0.9,0.7,1.4,0.9c1.1,0.5,2.4,0.9,3.7,1.1c1.3,0.2,2.7,0.3,4.1,0.3
				c1.4,0,2.8-0.1,4.1-0.2c1.4-0.2,2.8-0.4,4.1-0.7c2.7-0.6,5.4-1.4,8-2.5c2.5-1.1,5-2.5,6.9-4.3c0.9-0.9,1.8-1.9,2.3-3
				c0.1-0.3,0.2-0.5,0.3-0.8l0.1-0.4l0.1-0.2l0-0.2c0.1-0.6,0.1-1.2,0-1.9c-0.2-2.7-0.9-5.4-1.6-8.2c-1.5-5.5-3.4-10.9-5.3-16.4
				c-1.9-5.4-3.9-10.9-5.9-16.3c-2-5.4-3.9-10.9-5.7-16.4c-0.9-2.8-2-5.5-2.7-8.3c-0.8-2.8-1.4-5.7-1.3-8.7c0-0.3,0.3-0.5,0.6-0.5
				c0.2,0,0.4,0.1,0.4,0.3l0,0c1.6,2.6,2.5,5.3,3.4,8c0.9,2.7,1.6,5.5,2.5,8.3c1.8,5.5,3.7,10.9,5.7,16.3c2,5.4,4,10.9,5.9,16.3
				c1.9,5.5,3.8,11,5.4,16.6c0.8,2.8,1.5,5.7,1.7,8.8c0,0.8,0.1,1.6-0.1,2.5l0,0.3l-0.1,0.3l-0.2,0.6c-0.1,0.4-0.3,0.8-0.5,1.2
				c-0.7,1.6-1.8,2.8-2.9,3.9c-2.3,2.2-5,3.7-7.8,4.9c-2.8,1.2-5.6,2.1-8.5,2.7c-1.5,0.3-2.9,0.6-4.4,0.7c-1.5,0.2-3,0.3-4.5,0.3
				c-3,0-6.1-0.3-9.1-1.7c-0.8-0.4-1.5-0.8-2.2-1.5c-0.7-0.6-1.2-1.5-1.6-2.4c-0.3-0.9-0.4-1.8-0.4-2.7c0-0.9,0.2-1.7,0.4-2.5
				c0.5-1.6,1.2-3,2-4.3c0.4-0.7,0.8-1.3,1.3-1.9c0.5-0.6,0.9-1.2,1.5-1.8l-0.2,1.8c-2-3.4-3.7-7-5.2-10.6c-0.7-1.8-1.5-3.6-2.2-5.5
				c-0.7-1.8-1.3-3.7-2-5.5c-1.3-3.7-2.5-7.4-3.4-11.2c-0.5-1.9-0.9-3.8-1.2-5.7c-0.3-1.9-0.5-3.9-0.5-5.9c0-0.3,0.2-0.5,0.5-0.5
				C878.7,727.5,878.9,727.7,878.9,727.8L878.9,727.8z"/>
		</g>
		<g>
			<path class="st16" d="M901.1,753.4c-4.8,1.4-10.1,2.1-15.4,1.5c-0.6-0.1-1.1-0.7-1-1.3c0.1-0.6,0.7-1.1,1.3-1
				c16.1,1.8,32.3-10.1,32.5-10.2c0.5-0.4,1.3-0.3,1.6,0.2c0.4,0.5,0.3,1.3-0.2,1.6C919.3,744.7,911.4,750.5,901.1,753.4z"/>
		</g>
		<g>
			<circle class="st13" cx="839.6" cy="710" r="5.8"/>
		</g>
		<g class="st14">
			<path class="st15" d="M834,711.7c1,3.1,4.3,4.8,7.3,3.8c3.1-1,4.8-4.3,3.8-7.3c-0.3-0.9-0.7-1.6-1.3-2.2c-0.3,2.2-1.8,4.1-4,4.8
				c-2.2,0.7-4.6,0-6-1.6C833.7,710,833.8,710.9,834,711.7z"/>
		</g>
		<g>
			<path class="st16" d="M841.7,717.1c-3.8,1.1-7.9-1.1-9.1-4.9c-0.6-1.9-0.4-3.9,0.5-5.6c0.9-1.8,2.5-3,4.3-3.6
				c1.9-0.6,3.9-0.4,5.6,0.5c1.8,0.9,3,2.4,3.6,4.3c1.2,3.9-0.9,8.1-4.8,9.3C841.8,717,841.7,717.1,841.7,717.1z M838.4,705.8
				c0,0-0.1,0-0.1,0c-1.1,0.3-2,1.1-2.5,2.1c-0.5,1-0.6,2.2-0.3,3.3l0,0c0.3,1.1,1.1,2,2.1,2.5c1,0.5,2.2,0.6,3.3,0.3
				c2.3-0.7,3.5-3.1,2.8-5.4c-0.3-1.1-1.1-2-2.1-2.5C840.6,705.6,839.5,705.5,838.4,705.8z"/>
		</g>
		<g>
			<g class="st14">
				<path class="st15" d="M840.9,715.2c-0.9-6.6-2.4-12.5-4.1-17.6c0.7,3,1.4,6.3,1.8,9.7c0.5,4,1.5,8.1,3,11.9
					C841.3,717.9,841,716.5,840.9,715.2z"/>
			</g>
			<g>
				<path class="st13" d="M849.4,724.5l29.8-6.9c3.5-0.8,5.7-4.4,4.9-7.9l-3.7-15.8c-0.7-3.1-3.5-5.2-6.6-5.1
					c-0.4,0-0.9,0.1-1.3,0.2l-29.8,6.9c-3.5,0.8-5.7,4.4-4.9,7.9l2.9,12.6l0.8,3.3C842.3,723.1,845.9,725.3,849.4,724.5z"/>
			</g>
			<g>
				<path class="st13" d="M905.8,686.2c0,0,3.3,1.4,4.4,4.7c1.2,3.8-0.7,6.1-0.7,6.1s-9,8.4-27,9.7c0,0-6.8-4.9-2.3-10
					C880.3,696.7,898.9,694,905.8,686.2z"/>
			</g>
			<g>
				<path class="st13" d="M849.4,724.5l29.8-6.9c3.5-0.8,5.7-4.4,4.9-7.9l-3.7-15.8c-0.7-3.1-3.5-5.2-6.6-5.1
					c-0.4,0-0.9,0.1-1.3,0.2l-29.8,6.9c-3.5,0.8-5.7,4.4-4.9,7.9l2.9,12.6l0.8,3.3C842.3,723.1,845.9,725.3,849.4,724.5z"/>
			</g>
			<g class="st14">
				<path class="st15" d="M849.4,724.5l29.8-6.9c3.5-0.8,5.7-4.4,4.9-7.9l-3.7-15.8c-0.7-3.1-3.5-5.2-6.6-5.1
					c-1.4,1.5-2.3,2.5-2.3,2.5c1.5,13.1-0.6,20.2-16.4,24.2c-6.8,1.7-11.3,1.7-14.4,0.9l0.8,3.3
					C842.3,723.1,845.9,725.3,849.4,724.5z"/>
			</g>
			<g>
				<path class="st16" d="M879.9,718.8c-0.1,0-0.3,0.1-0.4,0.1l-29.8,6.9c-4.3,1-8.6-1.7-9.6-6l-3.7-15.9c-0.5-2.1-0.1-4.2,1-6
					c1.1-1.8,2.9-3.1,5-3.6l29.8-6.9c4.3-1,8.6,1.7,9.6,6l3.7,15.9c0.5,2.1,0.1,4.2-1,6C883.4,717.1,881.8,718.3,879.9,718.8z
					 M842.8,697.3c-1.2,0.4-2.3,1.1-3,2.2c-0.7,1.2-1,2.6-0.7,3.9l3.7,15.9c0.6,2.8,3.4,4.5,6.2,3.9l29.8-6.9
					c1.3-0.3,2.5-1.1,3.2-2.3c0.7-1.2,1-2.6,0.7-3.9l-3.7-15.9c-0.3-1.3-1.1-2.5-2.3-3.2c-1.2-0.7-2.6-1-3.9-0.7l-29.8,6.9
					C843,697.2,842.9,697.2,842.8,697.3z"/>
			</g>
			<g>
				<path class="st13" d="M848.2,724.7c0.4,0,0.8-0.1,1.2-0.2l29.8-6.9c2.6-0.6,4.5-2.7,5-5.1c0.2-0.9,0.2-1.8,0-2.8l-1.6-7
					l-0.5-2.3l-1.5-6.5c-0.8-3.5-4.4-5.7-7.9-4.9l-6.4,1.5c3.1-0.1,6,2,6.7,5.1l2,8.6l1.7,7.3c0.8,3.5-1.4,7.1-4.9,7.9L848.2,724.7z
					"/>
			</g>
			<g class="st14">
				<path class="st15" d="M848.2,724.7c0.4,0,0.8-0.1,1.2-0.2l29.8-6.9c3.5-0.8,5.7-4.4,4.9-7.9l-2.2-9.4c-0.4,1.8-1.2,4.2-3.3,4.9
					c-1.2,0.4-2.5-0.2-3.8-1.2l1.7,7.3c0.8,3.5-1.4,7.1-4.9,7.9L848.2,724.7z"/>
			</g>
			<g>
				<path class="st16" d="M879.9,718.8c-0.1,0-0.3,0.1-0.4,0.1l-29.8,6.9c-0.5,0.1-1,0.2-1.5,0.2l-0.4-2.8l23.4-5.4
					c1.3-0.3,2.5-1.1,3.2-2.3c0.7-1.2,1-2.6,0.7-3.9l-3.7-15.9c-0.6-2.4-2.8-4.1-5.3-4l-0.4-2.8l6.4-1.5c2.1-0.5,4.2-0.1,6,1
					c1.8,1.1,3.1,2.9,3.6,5l3.7,15.8l0,0c0.5,2.1,0.1,4.2-1,6C883.4,717.1,881.8,718.3,879.9,718.8z M877.1,716.6l1.8-0.4
					c1.3-0.3,2.5-1.1,3.2-2.3c0.7-1.2,1-2.6,0.7-3.9l0,0l-3.7-15.8c-0.3-1.3-1.1-2.5-2.3-3.2c-1.2-0.7-2.6-1-3.9-0.7l-1.6,0.4
					c1.4,1.1,2.5,2.7,2.9,4.5l3.7,15.9C878.3,712.9,878,714.9,877.1,716.6z"/>
			</g>
			<g>
				<path class="st17" d="M862.9,706.3c0.1,0.6,2.1,5.1,2.1,5.1s1.5-0.4,3.3-0.8c2.3-0.5,3.6-3.4,2.9-6.3c-0.7-2.9-3.1-4.9-5.4-4.3
					c-1.5,0.4-3.3,0.8-3.3,0.8S862.7,705.3,862.9,706.3z"/>
			</g>
			<g class="st14">
				<path class="st15" d="M862.9,706.3c0.1,0.6,2.1,5.1,2.1,5.1s1.5-0.4,3.3-0.8c2.3-0.5,3.6-3.4,2.9-6.3c-0.7-2.9-3.1-4.9-5.4-4.3
					c-1.5,0.4-3.3,0.8-3.3,0.8S862.7,705.3,862.9,706.3z"/>
			</g>
			<g>
				<path class="st16" d="M868.7,711.4c-0.1,0-0.1,0-0.2,0l-2.3,0.6c-1,0.2-2.1-0.3-2.5-1.3c-1.6-3.7-1.7-4.1-1.7-4.3l0,0
					c-0.1-0.6-0.3-2.1-0.4-4.6c-0.1-1.1,0.6-2,1.7-2.2l2.3-0.6c1.4-0.3,2.9,0,4.1,1c1.2,0.9,2.1,2.4,2.4,4c0.4,1.6,0.3,3.3-0.4,4.7
					C871.1,710.1,870,711.1,868.7,711.4z M863.8,706c0.1,0.2,0.5,1.4,1.6,4c0.1,0.1,0.2,0.2,0.3,0.2l2.3-0.6
					c0.8-0.2,1.5-0.8,1.9-1.7c0.5-1,0.6-2.2,0.3-3.4c-0.3-1.2-0.9-2.3-1.8-2.9c-0.8-0.6-1.7-0.9-2.5-0.7l-2.3,0.6
					c-0.1,0-0.2,0.2-0.2,0.3C863.6,704,863.7,705.6,863.8,706z"/>
			</g>
			<g>
				
					<ellipse transform="matrix(0.9726 -0.2326 0.2326 0.9726 -140.5326 220.252)" class="st17" cx="863.7" cy="706.1" rx="4.3" ry="5.5"/>
			</g>
			<g class="st18">
				<path class="st13" d="M859.9,708.2c-0.2-2.5,1.1-4.7,3.1-5.1c2-0.5,4.1,0.9,5.1,3.2c0-0.4-0.1-0.8-0.2-1.2
					c-0.7-2.9-3.1-4.9-5.4-4.3c-2.3,0.6-3.6,3.4-2.9,6.3C859.7,707.4,859.8,707.8,859.9,708.2z"/>
			</g>
			<g class="st14">
				<path class="st15" d="M865,711.4c2.3-0.5,3.6-3.4,2.9-6.3c-0.2-0.7-0.5-1.4-0.8-2c0,2.3-1.2,4.3-3.1,4.8
					c-1.7,0.4-3.5-0.6-4.6-2.3c0,0.5,0.1,1,0.2,1.5C860.3,710,862.7,711.9,865,711.4z"/>
			</g>
			<g>
				<path class="st16" d="M865.4,712.2c-0.1,0-0.1,0-0.2,0c-1.4,0.3-2.9,0-4.1-1c-1.2-0.9-2.1-2.4-2.4-4l0,0
					c-0.8-3.4,0.8-6.8,3.6-7.4c1.4-0.3,2.9,0,4.1,1c1.2,0.9,2.1,2.4,2.4,4c0.4,1.6,0.3,3.3-0.4,4.7
					C867.8,710.9,866.7,711.9,865.4,712.2z M860.5,706.8c0.3,1.2,0.9,2.3,1.8,2.9c0.8,0.6,1.7,0.9,2.5,0.7c0.8-0.2,1.5-0.8,1.9-1.7
					c0.5-1,0.6-2.2,0.3-3.4c-0.3-1.2-0.9-2.3-1.8-2.9c-0.8-0.6-1.7-0.9-2.5-0.7C860.9,702.1,859.9,704.4,860.5,706.8L860.5,706.8z"
					/>
			</g>
			<g>
				<path class="st16" d="M859,723.3C858.9,723.3,858.9,723.3,859,723.3c-0.7,0.2-1.3-0.2-1.4-0.8l-2.5-9.6
					c-0.1-0.4-0.4-0.8-0.9-0.9l-3.3-1.1c-1.2-0.4-2.1-1.4-2.4-2.6l-3.1-13c-0.1-0.6,0.2-1.2,0.9-1.4c0.6-0.1,1.3,0.2,1.4,0.9l3.1,13
					c0.1,0.4,0.4,0.8,0.9,1l3.3,1.1c1.2,0.4,2,1.4,2.4,2.5l2.5,9.6C859.9,722.5,859.6,723.2,859,723.3z"/>
			</g>
		</g>
		<g>
			<path class="st13" d="M905.8,686.2c0,0,3.3,1.4,4.4,4.7c1.2,3.8-0.7,6.1-0.7,6.1s-9,8.4-27,9.7c0,0-6.8-4.9-2.3-10
				C880.3,696.7,898.9,694,905.8,686.2z"/>
		</g>
		<g class="st14">
			<path class="st15" d="M910.2,690.9c1.2,3.8-0.7,6.1-0.7,6.1s-9,8.4-27,9.7c0,0-2.2-1.6-3.3-3.9c0.1,0.1,0.2,0.1,0.2,0.1
				c13.1-0.9,21.5-5.7,25-8.2c2.5-1.7,3.6-4.7,2.7-7.5c0,0,0-0.1,0-0.1c0-0.1,0-0.1-0.1-0.2C908.1,687.6,909.6,688.9,910.2,690.9z"
				/>
		</g>
		<g>
			<path class="st16" d="M894.7,706.1c-3.5,1-7.5,1.8-12.1,2.1l-0.6,0l-0.5-0.3c-0.2-0.1-4-2.9-4.4-6.8c-0.2-2,0.4-3.8,1.9-5.5
				l0.4-0.4l0.6-0.1c0.2,0,18.1-2.7,24.6-10l0.7-0.8l1,0.4c0.2,0.1,4,1.7,5.3,5.6c1.5,4.6-0.9,7.5-1,7.6l-0.1,0.1
				C910.3,698.4,905,703.2,894.7,706.1z M883,705.1c16-1.3,24.5-8.4,25.3-9.2c0.2-0.3,1.2-1.9,0.4-4.5c-0.5-1.6-1.8-2.7-2.7-3.2
				c-7,6.7-21.8,9.4-25,10c-0.7,0.9-0.9,1.8-0.8,2.7C880.5,702.7,882.2,704.4,883,705.1z"/>
		</g>
		<g>
			<path class="st16" d="M913.3,768.3c-1.7-0.3-3.4-0.4-5-0.4c-1.7,0.1-3.3,0.3-4.9,0.7c-1.6,0.4-3.2,0.9-4.6,1.7
				c-0.7,0.3-1.4,0.8-2.1,1.2c-0.4,0.2-0.7,0.4-1,0.7l-1,0.7l-0.1,0.1c-0.7,0.5-1.7,0.3-2.2-0.4c-0.5-0.7-0.3-1.7,0.4-2.2
				c0.1,0,0.1-0.1,0.2-0.1l1.2-0.6c0.4-0.2,0.8-0.4,1.2-0.6c0.8-0.3,1.7-0.7,2.5-0.9c1.7-0.6,3.5-0.9,5.2-1.1
				c1.7-0.2,3.5-0.1,5.2,0.1C910,767.3,911.7,767.7,913.3,768.3z"/>
		</g>
		<g>
			<g class="st14">
				<path class="st16" d="M886.6,651c-7.3,16.1-19.9,26.7-34.1,29.7c-0.9,0.2-1.9,0.4-2.8,0.5c-2.6,0.3-5.3,0.4-7.9,0.3
					c-2.2-0.1-4.4-0.5-6.7-1c-0.2,0-0.3-0.1-0.5-0.1c-0.1-0.6-0.2-1.3-0.2-1.9c-1.1-9.2-2.2-19.5-3.3-30.7l45.8-10.6
					C880.4,641.7,883.6,646.4,886.6,651z"/>
			</g>
			<g>
				<path class="st13" d="M800.7,652.2c4.4,6.9,10.7,12.8,18.3,16.8c1.6,0.8,3.2,1.6,4.8,2.2c0.8,0.3,1.6,0.6,2.5,0.9
					c2.5,0.9,5.1,1.5,7.7,2c2.2,0.4,4.4,0.6,6.6,0.7c2.7,0.1,5.3,0,7.9-0.3c1-0.1,1.9-0.3,2.8-0.4c17.2-3.1,32.3-15,38.5-32.5
					c9.1-25.7-4.5-53.8-30.5-62.6c-5-1.7-10.1-2.6-15.2-2.7c-0.6,0-1.2,0-1.8,0c-1.6,0-3.2,0.1-4.7,0.3c-3.6,0.4-7.1,1.2-10.5,2.3
					c-3.4,1.1-6.7,2.6-9.7,4.4c-1,0.6-1.9,1.2-2.9,1.8c-1.4,1-2.8,2-4.1,3.1c-6.5,5.5-11.7,12.7-14.8,21.3
					C790.6,624.4,792.9,640,800.7,652.2z"/>
				<path class="st15" d="M856.5,673.1c-1.6,0.5-3.3,0.9-5,1.2c-0.9,0.2-1.9,0.3-2.8,0.4c-2.6,0.3-5.3,0.4-8,0.3
					c-2.2-0.1-4.5-0.3-6.7-0.7c-2.6-0.4-5.2-1.1-7.7-2c-0.9-0.3-1.7-0.6-2.5-0.9c-1.6-0.7-3.3-1.4-4.9-2.2
					c-7.5-4-13.8-9.8-18.4-16.9c-8.2-12.8-10-28.4-4.9-42.7c2.9-8.3,8.1-15.7,14.8-21.4c1.3-1.1,2.7-2.1,4.1-3.1
					c0.9-0.6,1.9-1.2,2.9-1.8c3.1-1.8,6.4-3.3,9.8-4.4c3.4-1.1,7-1.9,10.6-2.3c1.6-0.2,3.1-0.3,4.7-0.3c0.6,0,1.2,0,1.8,0
					c5.1,0.1,10.3,1,15.2,2.7c12.7,4.3,22.8,13.2,28.6,25.2c5.7,11.8,6.5,25.2,2,37.6C884.7,657,872.1,668.7,856.5,673.1z
					 M800.8,652.1c4.5,7.1,10.8,12.9,18.3,16.8c1.6,0.8,3.2,1.6,4.8,2.2c0.8,0.3,1.6,0.6,2.5,0.9c2.5,0.8,5.1,1.5,7.7,1.9
					c2.2,0.4,4.4,0.6,6.6,0.7c2.6,0.1,5.3,0,7.9-0.3c0.9-0.1,1.9-0.3,2.8-0.4c17.7-3.2,32.5-15.6,38.4-32.4
					c4.4-12.4,3.7-25.6-2-37.4c-5.7-11.9-15.8-20.7-28.4-25c-4.9-1.7-10-2.6-15.1-2.7c-0.6,0-1.1,0-1.8,0c-1.6,0-3.1,0.1-4.7,0.3
					c-3.6,0.4-7.1,1.2-10.5,2.3c-3.4,1.1-6.6,2.6-9.7,4.4c-1,0.6-2,1.2-2.9,1.8c-1.4,1-2.8,2-4.1,3.1c-6.7,5.7-11.8,13-14.7,21.3
					C790.9,623.9,792.7,639.4,800.8,652.1z"/>
			</g>
			<g class="st14">
				<path class="st15" d="M890,641.6c-6.2,17.5-21.3,29.4-38.5,32.5c-0.9,0.2-1.9,0.3-2.8,0.4c-2.6,0.3-5.3,0.4-7.9,0.3
					c-2.2-0.1-4.4-0.3-6.6-0.7c-2.6-0.4-5.1-1.1-7.7-2c-0.8-0.3-1.7-0.6-2.5-0.9c-1.7-0.7-3.3-1.4-4.8-2.2
					c-7.7-4-13.9-9.9-18.3-16.8c-2.4-3.8-4.3-7.9-5.7-12.3c4.4,6.5,10.4,12,17.7,15.9c1.6,0.8,3.2,1.6,4.8,2.2
					c0.8,0.3,1.6,0.6,2.5,0.9c2.5,0.9,5.1,1.5,7.7,2c2.2,0.4,4.4,0.6,6.6,0.7c2.7,0.1,5.3,0,7.9-0.3c1-0.1,1.9-0.3,2.8-0.4
					c17.2-3.1,32.3-15,38.5-32.5c3.6-10.2,3.7-20.7,0.8-30.3C892.8,610.5,895.4,626.4,890,641.6z"/>
			</g>
			<g>
				<path class="st15" d="M856.8,674.1c-1.7,0.5-3.4,0.9-5.1,1.2c-1,0.2-1.9,0.3-2.9,0.4c-2.7,0.3-5.4,0.4-8.1,0.3
					c-2.3-0.1-4.6-0.3-6.8-0.7c-2.7-0.5-5.3-1.1-7.9-2c-0.9-0.3-1.8-0.6-2.5-0.9c-1.7-0.7-3.3-1.4-5-2.3c-7.6-4-14.1-10-18.8-17.3
					c-8.4-13.1-10.2-29-5-43.7c3-8.5,8.2-16,15.1-21.8c1.3-1.1,2.7-2.2,4.2-3.2c0.9-0.6,1.9-1.3,2.9-1.9c3.2-1.9,6.5-3.4,10-4.5
					c3.5-1.2,7.1-2,10.8-2.4c1.6-0.2,3.2-0.3,4.8-0.3c0.6,0,1.2,0,1.8,0c5.2,0.1,10.5,1,15.5,2.7c12.9,4.4,23.3,13.5,29.2,25.7
					c5.9,12.1,6.6,25.7,2.1,38.4C885.6,657.6,872.7,669.6,856.8,674.1z M801.7,651.6c4.4,6.9,10.6,12.6,17.9,16.4
					c1.5,0.8,3.1,1.6,4.7,2.2c0.7,0.3,1.5,0.6,2.4,0.9c2.4,0.8,5,1.5,7.5,1.9c2.1,0.4,4.3,0.6,6.5,0.7c2.6,0.1,5.2,0,7.7-0.3
					c0.9-0.1,1.9-0.3,2.8-0.4c17.4-3.1,31.8-15.3,37.6-31.7c4.3-12.1,3.6-25.1-2-36.6c-5.6-11.6-15.5-20.3-27.8-24.5
					c-4.8-1.6-9.8-2.5-14.8-2.6c-0.6,0-1.1,0-1.7,0c-1.5,0-3.1,0.1-4.6,0.3c-3.5,0.4-6.9,1.1-10.3,2.3c-3.3,1.1-6.5,2.6-9.5,4.3
					c-1,0.6-1.9,1.2-2.8,1.8c-1.4,1-2.7,2-4,3c-6.6,5.5-11.6,12.7-14.4,20.8C792,624,793.7,639.1,801.7,651.6z"/>
			</g>
			<g>
				<path class="st16" d="M856.9,674.5c-1.7,0.5-3.4,0.9-5.1,1.2c-1,0.2-2,0.3-2.9,0.4c-2.7,0.3-5.5,0.4-8.2,0.3
					c-2.3-0.1-4.6-0.3-6.9-0.7c-2.7-0.5-5.3-1.1-7.9-2c-1-0.3-1.8-0.6-2.6-1c-1.7-0.7-3.4-1.5-5-2.3c-7.7-4.1-14.2-10.1-18.9-17.4
					c-8.4-13.2-10.3-29.2-5-44c3-8.5,8.3-16.1,15.2-22c1.3-1.1,2.7-2.2,4.2-3.2c1-0.7,1.9-1.3,3-1.9c3.2-1.9,6.6-3.4,10-4.6
					c3.5-1.2,7.2-2,10.9-2.4c1.6-0.2,3.2-0.3,4.9-0.3c0.6,0,1.3,0,1.8,0c5.3,0.1,10.5,1,15.6,2.8c13,4.4,23.5,13.6,29.4,25.9
					c5.9,12.2,6.6,25.9,2.1,38.7C885.9,657.9,872.9,669.9,856.9,674.5z M802,651.4c4.4,6.9,10.5,12.5,17.7,16.3
					c1.5,0.8,3.1,1.5,4.7,2.2c0.7,0.3,1.5,0.6,2.4,0.9c2.4,0.8,4.9,1.5,7.4,1.9c2.1,0.4,4.3,0.6,6.4,0.7c2.5,0.1,5.1,0,7.7-0.3
					c0.9-0.1,1.8-0.3,2.8-0.4c17.2-3.1,31.6-15.2,37.3-31.5c4.3-12,3.6-24.9-2-36.3c-5.6-11.5-15.4-20.1-27.6-24.3
					c-4.8-1.6-9.7-2.5-14.7-2.6c-0.6,0-1.1,0-1.7,0c-1.5,0-3.1,0.1-4.6,0.3c-3.5,0.4-6.9,1.1-10.2,2.2c-3.3,1.1-6.5,2.5-9.4,4.3
					c-1,0.6-1.9,1.2-2.8,1.8c-1.4,1-2.7,2-4,3c-6.5,5.5-11.5,12.6-14.3,20.7C792.4,624,794.1,639,802,651.4z"/>
			</g>
			<g>
				<path class="st16" d="M808.8,661.9c30.5,18,69.3,0.8,69-34.1c-0.1-23.7-23.8-41.7-46.9-40c-16.8,1.3-32.7,9.8-38,36.1
					c0,0-0.5,12,3.3,19.6s8.8,14.5,8.8,14.5L808.8,661.9z"/>
			</g>
			<g>
				<path class="st19" d="M877.9,627.8c0.2,34.9-38.5,52.1-69,34.1l-0.8-0.8c32.5,3.3,63.2-17.9,63.7-53.2
					C875.5,613.7,877.8,620.5,877.9,627.8z"/>
			</g>
			<g>
				<path class="st16" d="M849.9,673.5c-5,1.4-10.4,2.2-15.8,2.1l-0.2,0c-2.7-0.5-5.3-1.1-7.9-2c-0.9-0.3-1.8-0.6-2.6-1
					c-1.7-0.7-3.4-1.4-5-2.3c-7.7-4.1-14.2-10.1-18.9-17.3c-8.4-13.1-10.2-29.1-5-43.8c3-8.5,8.3-16.1,15.2-21.9l0.1-0.1l0.1-0.1
					c5.8-3.1,12.7-5,20.4-5.6c13.9-1.1,28.6,4.2,39.2,14c9.6,8.8,14.9,20.3,15,32.4c0.1,13.1-4.6,24.7-13.4,33.5
					C865.4,667,858,671.2,849.9,673.5z M834.2,672.8c13.4,0.2,26.1-4.8,35-13.6c8.3-8.2,12.6-19.1,12.6-31.4
					c-0.1-11.3-5.1-22-14.1-30.3c-10.1-9.3-23.9-14.2-37.1-13.2c-7.3,0.6-13.7,2.3-19.2,5.2c-6.5,5.5-11.4,12.6-14.2,20.6
					c-4.9,13.9-3.2,29,4.7,41.4c4.4,6.9,10.6,12.5,17.8,16.4c1.5,0.8,3.1,1.5,4.7,2.2c0.7,0.3,1.5,0.6,2.4,0.9
					C829.2,671.7,831.7,672.4,834.2,672.8z"/>
			</g>
			<g>
				<path class="st13" d="M899.8,624.1c1.2,9.6-3.5,18.5-10.5,19.8c-7.1,1.3-13.8-5.5-15.1-15.1c0-0.1,0-0.1,0-0.2
					c-1.2-9.6,3.5-18.3,10.6-19.6c5.5-1,10.7,2.8,13.4,9.1C899,619.8,899.5,621.9,899.8,624.1z"/>
			</g>
			<g class="st14">
				<path class="st15" d="M899.8,624.1c1.2,9.6-3.5,18.5-10.5,19.8c-7.1,1.3-13.8-5.5-15.1-15.1c0-0.1,0-0.1,0-0.2
					c0.9,0.8,2.2,1.6,3.8,1c2.8-1.1,7.1-8.2,7.1-8.2s5.6-1.5,13-3.3C899,619.8,899.5,621.9,899.8,624.1z"/>
			</g>
			<g>
				<path class="st16" d="M890.6,645.1c-0.4,0.1-0.7,0.2-1.1,0.3c-3.2,0.6-6.4-0.2-9.2-2.3c-4.1-3-6.9-8.1-7.6-14.1
					c-1.3-10.4,4-20.1,11.8-21.5c3.2-0.6,6.4,0.2,9.2,2.3c4.1,3,6.9,8.1,7.6,14.1l0,0C902.6,633.8,897.9,643,890.6,645.1z
					 M884.2,610.7c-5.8,1.7-9.5,9.4-8.5,17.8c0.7,5.1,3,9.6,6.4,12c2.2,1.6,4.5,2.2,6.9,1.8c6.3-1.1,10.4-9.2,9.3-18l0,0
					c-0.7-5.1-3-9.6-6.4-12c-2.2-1.6-4.5-2.2-6.9-1.8C884.8,610.5,884.5,610.6,884.2,610.7z M899.8,624.1L899.8,624.1L899.8,624.1z"
					/>
			</g>
			<g>
				
					<ellipse transform="matrix(0.9995 -3.255377e-02 3.255377e-02 0.9995 -19.9484 29.3493)" class="st13" cx="891.4" cy="627.3" rx="10.6" ry="14"/>
				<path class="st15" d="M893.8,641.1c-1.7,0.5-3.4,0.4-5.1-0.2c-5.7-2.1-9.2-9.9-7.7-17.4c0.8-4.2,3-7.6,6-9.3
					c2.2-1.3,4.7-1.5,7.1-0.6c5.7,2.1,9.2,9.9,7.7,17.4c-0.8,4.2-3,7.6-6,9.3C895.1,640.7,894.5,640.9,893.8,641.1z M889,613.8
					c-0.6,0.2-1.3,0.5-1.9,0.8c-2.9,1.7-5.1,5-5.8,9.1c-1.4,7.4,2,15,7.5,17c2.3,0.8,4.6,0.6,6.8-0.6c2.9-1.7,5.1-5,5.8-9.1l0,0
					c1.4-7.4-2-15-7.5-17C892.3,613.4,890.6,613.3,889,613.8z"/>
			</g>
			<g class="st14">
				<path class="st15" d="M882.2,634.5c-1-2.5-1.3-5.2-1-7.8c2.7,5.4,8.3,7,12.8,3.6c3-2.3,4.8-6.1,5.3-10.2
					c0.2,0.3,0.3,0.7,0.5,1.1c2.5,6.3,0.6,14.4-4.3,18.1S884.7,640.7,882.2,634.5z"/>
			</g>
			<g>
				<path class="st15" d="M894.2,642.4c-0.3,0.1-0.5,0.1-0.8,0.2c-2.4,0.4-4.7-0.1-6.9-1.7c-3.3-2.4-5.6-6.8-6.2-11.9
					c-1.1-8.7,2.9-16.5,9-17.6c2.4-0.4,4.7,0.1,6.9,1.7c3.3,2.4,5.6,6.8,6.2,11.9l0,0C903.5,633.3,899.9,640.7,894.2,642.4z
					 M889.3,614.2c-4.3,1.2-7.1,7.6-6.2,14.4c0.5,4.3,2.4,8.1,5.1,10c1.5,1.1,3.1,1.5,4.7,1.2c4.5-0.9,7.6-7.5,6.7-14.5l0,0
					c-0.5-4.3-2.4-8.1-5.1-10c-1.5-1.1-3.1-1.5-4.7-1.2C889.7,614.1,889.5,614.2,889.3,614.2z"/>
			</g>
			<g class="st8">
				<path class="st13" d="M843,597.2c0,0-21.6,3-32.6,16.2c0,0,0,0,0,0c-2.3,2.8-3.8,6.1-4.4,9.7c-0.8,4.7-0.6,8-0.4,11
					c0.8,8.9,2.9,13,2.9,13c-5.6-4.2-8.9-9.3-9.7-16.8c-0.1-0.7-0.1-1.5-0.1-2.3c0-0.2,0-0.4,0-0.5c0,0,0,0,0,0
					c0.1-1.6,0.2-3.7,0.6-6c1.2-7,4.3-16.3,12.7-21.3C827.5,591,843.6,596.2,843,597.2z"/>
			</g>
			<g class="st8">
				
					<ellipse transform="matrix(0.9353 -0.3538 0.3538 0.9353 -162.5204 345.0265)" class="st13" cx="862.3" cy="617" rx="6.7" ry="7.7"/>
			</g>
			<g class="st8">
				
					<ellipse transform="matrix(0.8984 -0.4392 0.4392 0.8984 -188.6064 444.8687)" class="st13" cx="867.1" cy="630" rx="2.8" ry="3.2"/>
			</g>
		</g>
		<g>
			<path class="st13" d="M918,656.6c-5,18.6-25.1,24-25.1,24l-13.2-21.1c0,0,6.3-6.6,6.4-13.7c0-10.2-10.7-26.4-10.7-26.4
				s-3,3.1-7.9,1.2c-16.2-6.4-8.8-17.4-8.5-17.8c0,0,0,0,0,0c-0.2,0.1-9.1,3.7-11.7-1.7c-0.2-0.5-0.3-1-0.3-1.5
				c0.2-5.7,14.8-12.4,21.1-12.4C895,587.4,924.4,632.7,918,656.6z"/>
		</g>
		<g class="st14">
			<path class="st15" d="M867.3,596.1c-3.3,1.5-6.3,4.5-8.3,6.7c-0.2,0.1-9.1,3.7-11.7-1.7c-0.2-0.5-0.3-1-0.3-1.5
				c2.5,1.7,6.7,0.9,11-1.2C863.6,595.6,867.3,596.1,867.3,596.1z"/>
		</g>
		<g class="st14">
			<path class="st15" d="M867.5,620.6c-10.2-4-11-9.8-10.2-13.7c1.6,1.5,2,5.4,7,6.9c8.4,2.6,14.9-5.6,16.4-3.7
				c2.9,3.3-3.8,12.5,1.6,22.3c-3.1-6.9-7-12.9-7-12.9S872.3,622.5,867.5,620.6z"/>
		</g>
		<g class="st14">
			<path class="st15" d="M918,656.6c-5,18.6-25.1,24-25.1,24l0,0c-2.7-3.3-1.8-8.1,1.9-10.2c7-4.1,16.9-11.8,20-23.4
				c1.4-5.3,1.1-11.6-0.6-18.2C918.4,638.7,920.1,648.8,918,656.6z"/>
		</g>
		<g>
			<path class="st16" d="M892.7,680.1c3.1-1.5,6.2-3.2,9-5.1c2.8-1.9,5.5-4.1,7.8-6.5c2.3-2.5,4.2-5.3,5.6-8.3
				c0.7-1.5,1.2-3.1,1.6-4.8l0.3-1.2c0.1-0.4,0.1-0.8,0.2-1.2c0-0.4,0.1-0.8,0.1-1.2l0-1.3c0.1-3.4-0.3-6.8-1.1-10.2
				c-0.7-3.4-1.8-6.7-3.1-9.9c-1.3-3.2-2.8-6.3-4.5-9.4c-1.7-3-3.6-6-5.6-8.8c-2.1-2.8-4.3-5.5-6.7-8c-2.4-2.5-5-4.9-7.7-7
				c-2.7-2.1-5.6-4-8.7-5.4c-3.1-1.4-6.3-2.5-9.7-2.8l-1.2-0.1c-0.4,0-0.9-0.1-1.2,0c-0.8,0-1.6,0.1-2.4,0.3
				c-1.6,0.3-3.3,0.8-4.8,1.4c-3.2,1.2-6.3,2.8-8.9,4.8c-0.6,0.5-1.2,1.1-1.8,1.6c-0.5,0.6-1,1.2-1.2,1.8c-0.2,0.6-0.3,1.1-0.1,1.5
				l0.1,0.2l0.1,0.2c0.1,0.1,0.2,0.3,0.2,0.4c0.2,0.2,0.4,0.5,0.6,0.6c0.9,0.7,2.4,0.9,4,0.8c0.8-0.1,1.6-0.2,2.4-0.4
				c0.4-0.1,0.8-0.2,1.2-0.3c0.4-0.1,0.8-0.3,1.1-0.4c0.8-0.3,1.7,0.1,2,0.9c0.2,0.5,0.1,1-0.1,1.4l0,0c0,0.1-0.1,0.2-0.2,0.3
				c-0.1,0.1-0.1,0.2-0.2,0.4c-0.1,0.3-0.3,0.5-0.4,0.8c-0.2,0.5-0.4,1.1-0.6,1.6c-0.3,1.1-0.4,2.2-0.2,3.3c0.3,2.2,1.6,4.1,3.4,5.7
				c0.9,0.8,1.9,1.4,3,2c0.5,0.3,1.1,0.6,1.7,0.8l0.9,0.4l0.4,0.2l0.4,0.1c1,0.4,2.1,0.5,3.1,0.3c0.5-0.1,1-0.2,1.5-0.5
				c0.2-0.1,0.5-0.2,0.7-0.4c0.1-0.1,0.2-0.1,0.3-0.2c0.1-0.1,0.2-0.2,0.2-0.2l0.2-0.2c0.7-0.5,1.6-0.4,2.1,0.3c0,0,0.1,0.1,0.1,0.1
				c2,3.2,3.9,6.4,5.5,9.7c1.7,3.4,3.1,6.8,4.2,10.5c0.2,0.4,0.3,0.9,0.4,1.4c0.1,0.5,0.2,0.9,0.3,1.4l0.3,1.4
				c0.1,0.5,0.1,1,0.2,1.5c0,0.5,0.1,1,0.1,1.5c0,0.5,0,1-0.1,1.6c-0.1,1-0.4,2-0.7,3c-0.7,1.9-1.6,3.6-2.7,5.2
				c-0.6,0.8-1.2,1.5-1.9,2.2c-0.7,0.7-1.4,1.3-2.2,1.9c-0.2,0.2-0.6,0.1-0.7-0.1c-0.1-0.2-0.1-0.4,0-0.6l0,0
				c1.8-3.2,3.5-6.3,4.5-9.5c0.2-0.8,0.4-1.6,0.5-2.4c0-0.2,0-0.4,0.1-0.6l0-0.6c0-0.2,0-0.4,0-0.6l0-0.6c0-0.8-0.2-1.7-0.3-2.5
				c-0.1-0.4-0.2-0.9-0.3-1.3c-0.1-0.4-0.2-0.9-0.3-1.3c-1-3.4-2.4-6.7-4-10c-1.6-3.2-3.4-6.4-5.4-9.4l2.4,0.2l-0.2,0.1l-0.1,0.1
				c-0.1,0.1-0.2,0.1-0.2,0.2c-0.2,0.1-0.3,0.2-0.5,0.4c-0.3,0.2-0.7,0.4-1,0.6c-0.7,0.3-1.5,0.6-2.3,0.7c-1.6,0.3-3.2,0.1-4.7-0.4
				l-0.5-0.2l-0.5-0.2l-1-0.4c-0.6-0.3-1.3-0.6-1.9-0.9c-1.2-0.6-2.4-1.4-3.5-2.4c-1.1-0.9-2.1-2-2.9-3.3c-0.8-1.3-1.4-2.8-1.5-4.3
				c-0.2-1.5-0.1-3.1,0.3-4.5c0.2-0.7,0.4-1.4,0.7-2.1c0.1-0.3,0.3-0.7,0.5-1c0.1-0.2,0.2-0.3,0.3-0.5c0.1-0.2,0.2-0.3,0.3-0.5
				l1.9,2.3c-0.5,0.2-0.9,0.3-1.4,0.5c-0.5,0.1-0.9,0.3-1.4,0.4c-0.9,0.2-1.9,0.4-2.9,0.5c-1,0.1-2,0.1-3.1-0.1
				c-1-0.2-2.1-0.6-3.1-1.3c-0.5-0.4-0.9-0.8-1.2-1.3c-0.2-0.2-0.3-0.5-0.5-0.7l-0.2-0.4c-0.1-0.1-0.1-0.3-0.2-0.5
				c-0.1-0.2-0.1-0.3-0.1-0.5l-0.1-0.5c-0.1-0.3,0-0.6,0-1c0-0.3,0.1-0.6,0.1-0.9c0.1-0.3,0.2-0.6,0.3-0.8c0.4-1.1,1.1-1.9,1.7-2.6
				c0.7-0.7,1.4-1.4,2.1-2c1.5-1.2,3.1-2.2,4.7-3c1.6-0.9,3.3-1.6,5-2.3c1.7-0.7,3.5-1.2,5.3-1.6c0.9-0.2,1.9-0.3,2.9-0.4
				c0.5,0,1,0,1.4,0l1.4,0.1c3.7,0.4,7.3,1.5,10.7,3.1c3.3,1.6,6.4,3.5,9.3,5.8c2.9,2.2,5.6,4.7,8,7.3c2.5,2.6,4.8,5.4,6.9,8.3
				c2.1,2.9,4.1,5.9,5.8,9.1c1.8,3.1,3.4,6.4,4.7,9.7c1.3,3.4,2.5,6.8,3.3,10.4c0.8,3.6,1.3,7.2,1.1,10.9l-0.1,1.4
				c0,0.5-0.1,0.9-0.2,1.4c-0.1,0.5-0.1,0.9-0.2,1.4l-0.3,1.4c-0.4,1.8-1,3.6-1.7,5.3c-1.4,3.4-3.5,6.6-6,9.3
				c-2.5,2.7-5.5,5-8.7,6.8c-1.6,0.9-3.3,1.6-5,2.3c-1.7,0.6-3.5,1.1-5.3,1.3c-0.3,0-0.5-0.2-0.6-0.5
				C892.4,680.4,892.5,680.2,892.7,680.1L892.7,680.1z"/>
		</g>
		<g>
			<path class="st16" d="M880.6,612.9c-0.1,0.5-0.1,0.8-0.2,1.2c-0.1,0.4-0.2,0.7-0.4,1.1c-0.3,0.7-0.6,1.4-1,2
				c-0.4,0.6-0.8,1.2-1.2,1.8c-0.2,0.3-0.5,0.6-0.7,0.9l-0.7,0.8c-0.6,0.6-1.6,0.7-2.2,0.1c-0.6-0.6-0.7-1.6-0.1-2.2
				c0.1-0.1,0.1-0.1,0.2-0.2l0.1,0l0.8-0.6c0.2-0.2,0.5-0.4,0.7-0.6c0.5-0.4,0.9-0.9,1.3-1.3c0.4-0.5,0.8-1,1.1-1.5
				c0.2-0.3,0.3-0.5,0.5-0.8c0.1-0.3,0.3-0.6,0.3-0.8l0-0.1c0.1-0.4,0.6-0.6,1-0.5C880.5,612.2,880.7,612.5,880.6,612.9z"/>
		</g>
		<g>
			<path class="st16" d="M904.5,640.5c-8.8,2.5-18.9,0.6-19.6,0.5c-0.6-0.1-1.1-0.7-0.9-1.4c0.1-0.6,0.7-1.1,1.4-0.9
				c0.2,0,22.8,4.2,28.6-8.4c0.3-0.6,1-0.8,1.6-0.6c0.6,0.3,0.9,1,0.6,1.6C913.8,636.4,909.3,639.1,904.5,640.5z"/>
		</g>
		<g>
			<path class="st16" d="M867.8,596.1c-1.7,1-3.3,2.2-4.7,3.6c-1.3,1.4-2.4,3.1-3.4,4.8c-0.4,0.7-1.4,1-2.1,0.6
				c-0.7-0.4-1-1.4-0.6-2.1c0-0.1,0.1-0.1,0.1-0.2c1.3-1.7,2.7-3.4,4.4-4.8c1.7-1.4,3.6-2.5,5.5-3.3l0,0c0.4-0.2,0.9,0,1,0.4
				C868.2,595.5,868.1,595.9,867.8,596.1z"/>
		</g>
		<g>
			<path class="st16" d="M770.3,729c-0.2,0.1-0.4,0.1-0.7,0c-14.5-4.4-16.3-26.3-16.4-27.2c0-0.6,0.4-1.2,1.1-1.3
				c0.6,0,1.2,0.4,1.3,1.1c0,0.2,1.8,21.2,14.7,25.1c0.6,0.2,1,0.8,0.8,1.5C771,728.7,770.7,728.9,770.3,729z"/>
		</g>
		<g>
			<path class="st16" d="M693.1,755.6c-0.1-0.5-0.1-0.8-0.1-1.2c0-0.4,0-0.8,0-1.2c0-0.8,0.2-1.5,0.3-2.3c0.2-0.8,0.4-1.5,0.7-2.2
				c0.1-0.4,0.3-0.7,0.4-1.1c0.2-0.4,0.3-0.7,0.5-1c0.4-0.8,1.3-1.1,2.1-0.7c0.8,0.4,1.1,1.3,0.7,2.1c0,0.1-0.1,0.2-0.1,0.2
				l-0.1,0.1c-0.2,0.3-0.4,0.5-0.6,0.8c-0.2,0.3-0.4,0.5-0.5,0.8c-0.3,0.6-0.6,1.1-0.9,1.8c-0.3,0.6-0.5,1.2-0.6,1.9
				c-0.1,0.3-0.1,0.6-0.2,1c0,0.3-0.1,0.7-0.1,0.9l0,0.1c0,0.4-0.4,0.8-0.8,0.8C693.5,756.2,693.2,755.9,693.1,755.6z"/>
		</g>
		<g>
			<path class="st16" d="M669,758.1c-0.3,0.1-0.6,0.1-0.9-0.1c-0.6-0.3-0.8-1-0.5-1.6c2.3-4.2,13.2-14.2,25.8-12.4
				c0.6,0.1,1.1,0.7,1,1.3c-0.1,0.6-0.7,1.1-1.3,1c-11.4-1.6-21.3,7.3-23.4,11.1C669.5,757.8,669.3,758.1,669,758.1z"/>
		</g>
	</g>
</g>
</svg>
